<svg version="1.1" xmlns="http://www.w3.org/2000/svg" xmlns:xlink="http://www.w3.org/1999/xlink" x="0px" y="0px" viewBox="0 0 256 256" enable-background="new 0 0 256 256" xml:space="preserve">
<metadata> Svg Vector Icons : http://www.onlinewebfonts.com/icon </metadata>
<g><g><g><g><g id="circle_64_"><g><path fill="#FFFFFF" d="M128,10C62.8,10,10,62.8,10,128c0,65.2,52.8,118,118,118c65.2,0,118-52.8,118-118C246,62.8,193.2,10,128,10z M128,238.6c-61.1,0-110.6-49.5-110.6-110.6C17.4,66.9,66.9,17.4,128,17.4c61.1,0,110.6,49.5,110.6,110.6C238.6,189.1,189.1,238.6,128,238.6z"/></g></g><g id="Calendar"><g><path fill="#FFFFFF" d="M105.9,76.4h-7.4v22.1h7.4V76.4z M142.8,83.8h-29.5v7.4h29.5V83.8z M172.3,83.8h-7.4v7.4h7.4c4.1,0,7.4,3.3,7.4,7.4v70.1c0,4.1-3.3,7.4-7.4,7.4H83.8c-4.1,0-7.4-3.3-7.4-7.4V98.5c0-4.1,3.3-7.4,7.4-7.4h7.4v-7.4h-7.4c-8.1,0-14.8,6.6-14.8,14.8v70.1c0,8.1,6.6,14.8,14.8,14.8h88.5c8.1,0,14.8-6.6,14.8-14.8V98.5C187,90.4,180.4,83.8,172.3,83.8z M157.5,76.4h-7.4v22.1h7.4V76.4z"/></g></g><g id="Ellipse_15_copy_3"><g><path fill="#FFFFFF" d="M98.5,113.3c-4.1,0-7.4,3.3-7.4,7.4c0,4.1,3.3,7.4,7.4,7.4s7.4-3.3,7.4-7.4C105.9,116.6,102.6,113.3,98.5,113.3z M128,113.3c-4.1,0-7.4,3.3-7.4,7.4c0,4.1,3.3,7.4,7.4,7.4c4.1,0,7.4-3.3,7.4-7.4C135.4,116.6,132.1,113.3,128,113.3z M157.5,128c4.1,0,7.4-3.3,7.4-7.4c0-4.1-3.3-7.4-7.4-7.4s-7.4,3.3-7.4,7.4C150.1,124.7,153.4,128,157.5,128z M98.5,142.8c-4.1,0-7.4,3.3-7.4,7.4c0,4.1,3.3,7.4,7.4,7.4s7.4-3.3,7.4-7.4C105.9,146.1,102.6,142.8,98.5,142.8z M128,142.8c-4.1,0-7.4,3.3-7.4,7.4c0,4.1,3.3,7.4,7.4,7.4c4.1,0,7.4-3.3,7.4-7.4C135.4,146.1,132.1,142.8,128,142.8z M157.5,142.8c-4.1,0-7.4,3.3-7.4,7.4c0,4.1,3.3,7.4,7.4,7.4s7.4-3.3,7.4-7.4C164.9,146.1,161.6,142.8,157.5,142.8z"/></g></g></g></g><g></g><g></g><g></g><g></g><g></g><g></g><g></g><g></g><g></g><g></g><g></g><g></g><g></g><g></g><g></g></g></g>
</svg>