<svg width="12" height="6" viewBox="0 0 12 6" fill="none" xmlns="http://www.w3.org/2000/svg">
<path d="M1.334 0.628048C1.28535 0.582987 1.22822 0.548053 1.16594 0.52528C1.10366 0.502508 1.03747 0.492352 0.971227 0.495403C0.904985 0.498454 0.840011 0.514651 0.780088 0.543052C0.720165 0.571453 0.66649 0.61149 0.622188 0.660833C0.577885 0.710176 0.543841 0.767838 0.522036 0.830463C0.500231 0.893089 0.491101 0.959426 0.495178 1.02561C0.499255 1.0918 0.516457 1.15652 0.545783 1.21599C0.575109 1.27547 0.615973 1.32852 0.665996 1.37205L1.334 0.628048ZM11.35 1.36205C11.3975 1.31674 11.4357 1.26252 11.4623 1.20247C11.4888 1.14242 11.5033 1.07772 11.5049 1.01207C11.5065 0.946418 11.4951 0.881099 11.4715 0.819841C11.4478 0.758583 11.4123 0.702587 11.367 0.655048C11.3217 0.607509 11.2675 0.56936 11.2074 0.542778C11.1474 0.516196 11.0827 0.501702 11.017 0.500123C10.9514 0.498545 10.886 0.509913 10.8248 0.533578C10.7635 0.557243 10.7075 0.592742 10.66 0.638048L11.35 1.36205ZM0.665996 1.37205L5.011 5.28205L5.68 4.53905L1.334 0.630048L0.665996 1.37205ZM6.993 5.30005C7.993 4.42705 9.925 2.72305 11.35 1.36205L10.66 0.638048C9.252 1.98305 7.333 3.67405 6.334 4.54705L6.993 5.30005ZM5.011 5.28205C5.571 5.78705 6.421 5.79905 6.993 5.30005L6.334 4.54705C6.24278 4.62615 6.12571 4.66903 6.00497 4.66756C5.88424 4.66609 5.76925 4.62036 5.68 4.53905L5.009 5.28205H5.011Z" fill="#4D4D4D"/>
</svg>
