<svg width="136" height="91" viewBox="0 0 136 91" fill="none" xmlns="http://www.w3.org/2000/svg">
<path d="M45.1815 90.3629C70.1345 90.3629 90.3629 70.1345 90.3629 45.1815C90.3629 20.2284 70.1345 0 45.1815 0M89.8629 45.1815C89.8629 69.8584 69.8584 89.8629 45.1815 89.8629C20.5046 89.8629 0.5 69.8584 0.5 45.1815C0.5 20.5046 20.5046 0.5 45.1815 0.5C69.8584 0.5 89.8629 20.5046 89.8629 45.1815ZM54.7325 89.8629C75.3768 85.4716 90.8629 67.135 90.8629 45.1815C90.8629 23.2279 75.3768 4.89139 54.7325 0.5H134.863V89.8629H54.7325Z" stroke="#C61B0F"/>
<path d="M55.7429 31.5726L75.1209 45.1815M75.1209 45.1815L55.7429 58.7904M75.1209 45.1815H16.3306" stroke="#C61B0F"/>
</svg>
