
<svg version="1.1" xmlns="http://www.w3.org/2000/svg" xmlns:xlink="http://www.w3.org/1999/xlink" x="0px" y="0px" viewBox="0 0 256 256" enable-background="new 0 0 256 256" xml:space="preserve">

<g><g><g><path fill="#97ae77" d="M128.1,10.7C101.8,14.9,79.6,29,65.3,50.4C55.4,65.3,50.6,80.2,49.9,98l-0.3,9l-13.2,24.8c-7.3,13.7-13.3,25.4-13.3,26.2s0.5,2,1.1,2.8c1.1,1.4,1.3,1.4,13.3,1.5l12.3,0.2v18.6c0,17.1,0.1,19,1.1,22.4c2.8,9.3,10.8,16.5,20.3,18.5c1.9,0.4,10.6,0.6,23.4,0.6H115v10.2c0,9.4,0.1,10.2,1.2,11.6l1.1,1.5h43.4h43.4l1.4-1.4l1.4-1.4v-38.7v-38.6l3.9-4.5c10.6-12.3,17.9-27.6,20.9-43.5c1.6-8.6,1.5-26.2-0.3-34.3c-7.9-36.9-35.2-64.3-71.9-72.1C152.2,9.9,135.3,9.5,128.1,10.7z M150.6,41.9c31,5.4,51.6,30.1,50,60.1c-1.1,22.2-15.8,40.1-37.4,45.8c-6.8,1.8-17.1,1.8-23.4,0c-14.4-4-25.7-15.7-29-29.9c-1.2-5.2-1.2-13.7,0.1-18.5c4-15.6,17.7-26.4,33.2-26.3c11.7,0.1,21.1,5.7,26,15.5c2,4.1,2.1,4.5,2.1,10.3c0,5.6-0.1,6.2-1.9,9.8c-3.4,7-10.9,12.2-18.2,12.8l-3.6,0.3l0.3-3.1c0.2-1.7,0.4-4.3,0.4-5.7c0-2.6,0.1-2.7,2.1-3.1c3-0.6,4.8-1.6,6.9-3.9c4.7-5.3,3.2-13.7-3.1-18.1c-7.1-4.9-16.9-4.4-24.4,1.3c-11.9,9-12.4,27.9-0.9,39.6c7.7,7.8,19.2,10.6,31,7.6c10.3-2.6,19.5-10,24.1-19.3c3.3-6.7,4.3-11,4.3-18.5c-0.1-12-4.1-22.1-12.4-30.9c-12.3-13.1-33.5-18.4-51.3-13.1c-18.6,5.7-32,23.7-35.5,48c-0.6,3.7-1,5.1-1.6,4.9c-0.5-0.1-3-0.2-5.8-0.5l-4.9-0.4l0.3-2.9c0.7-6,3.2-16.2,5.4-21.7c8.9-22.9,25.9-37.3,48.2-40.8C135.2,40.8,146.1,41.2,150.6,41.9z"/></g></g></g>
</svg>