<svg width="125" height="150" viewBox="0 0 125 150" fill="none" xmlns="http://www.w3.org/2000/svg">
<rect width="125" height="150" fill="#B01C12"/>
<path d="M9.08759 95.1167H19.7105C29.0791 95.1167 33.6654 89.8521 33.6654 81.1314C33.6654 72.4107 29.0791 66.9452 19.7105 66.9452H9.08759V95.1167ZM16.457 88.6465V73.4154H19.9849C23.8656 73.4154 26.1784 76.2285 26.1784 81.1314C26.1784 86.0343 23.9048 88.6465 19.9849 88.6465H16.457Z" fill="white"/>
<path d="M34.1719 95.1167H41.855L43.2661 90.0933H51.5764L52.9875 95.1167H60.7097L52.2819 66.9854H42.5998L34.1719 95.1167ZM44.5597 83.9445L47.2645 73.8976L47.578 73.978L50.2828 83.9445H44.5597Z" fill="white"/>
<path d="M63.0629 95.1167H70.4323V84.1455H73.9603L79.4873 95.1167H87.7191L80.3105 80.8501L87.0136 66.9854H79.2913L73.9603 77.7557H70.4323V66.9854H63.0629V95.1167Z" fill="white"/>
<path d="M88.8746 95.1167H96.5576L97.9688 90.0933H106.279L107.69 95.1167H115.412L106.985 66.9854H97.3024L88.8746 95.1167ZM99.2624 83.9445L101.967 73.8976L102.281 73.978L104.985 83.9445H99.2624Z" fill="white"/>
<path d="M9.08759 103.532H14.0373V117.532H18.8589V103.532H23.8086V99.3833H9.08759V103.532Z" fill="white"/>
<path d="M25.4089 117.532H30.2304V111.31H34.7698C36.6677 111.31 37.3858 112.373 37.3858 114.603C37.3858 115.692 37.5653 116.781 37.9243 117.532H42.8997V117.221C42.4125 116.418 42.1304 114.94 42.1304 113.825C42.1304 111.362 40.925 109.573 39.0015 109.236V108.976C41.1045 108.588 42.1304 106.85 42.1304 104.621C42.1304 101.198 39.8478 99.3833 35.6931 99.3833H25.4089V117.532ZM30.2304 107.628V103.065H34.4877C36.3343 103.065 37.2319 103.739 37.2319 105.347C37.2319 106.954 36.3086 107.628 34.5647 107.628H30.2304Z" fill="white"/>
<path d="M43.6739 117.532H48.7006L49.6239 114.292H55.0609L55.9842 117.532H61.0365L55.5226 99.3833H49.1879L43.6739 117.532ZM50.4702 110.325L52.2398 103.843L52.445 103.895L54.2146 110.325H50.4702Z" fill="white"/>
<path d="M62.5761 117.532H69.5263C75.6558 117.532 78.6564 114.136 78.6564 108.51C78.6564 102.883 75.6558 99.3573 69.5263 99.3573H62.5761V117.532ZM67.3977 113.358V103.532H69.7058C72.2448 103.532 73.758 105.347 73.758 108.51C73.758 111.673 72.2705 113.358 69.7058 113.358H67.3977Z" fill="white"/>
<path d="M80.5336 117.532H94.6135V113.384H85.3551V110.377H93.8184V106.306H85.3551V103.532H94.357V99.3833H80.5336V117.532Z" fill="white"/>
<rect x="98.4489" y="99.9632" width="16.3896" height="16.2409" fill="white"/>
<path d="M105.179 104.197H103.907C103.898 104.091 103.874 103.996 103.835 103.91C103.798 103.824 103.745 103.751 103.677 103.689C103.611 103.626 103.531 103.578 103.436 103.545C103.341 103.51 103.234 103.493 103.113 103.493C102.903 103.493 102.725 103.544 102.579 103.646C102.435 103.749 102.325 103.895 102.25 104.086C102.176 104.277 102.139 104.506 102.139 104.774C102.139 105.057 102.177 105.294 102.252 105.485C102.329 105.674 102.439 105.817 102.583 105.913C102.728 106.008 102.901 106.055 103.104 106.055C103.22 106.055 103.324 106.041 103.416 106.012C103.507 105.982 103.587 105.939 103.655 105.884C103.722 105.828 103.777 105.761 103.819 105.683C103.863 105.603 103.892 105.514 103.907 105.415L105.179 105.424C105.164 105.619 105.11 105.818 105.015 106.021C104.92 106.223 104.786 106.409 104.611 106.581C104.438 106.751 104.224 106.887 103.968 106.991C103.713 107.095 103.416 107.147 103.077 107.147C102.653 107.147 102.273 107.056 101.936 106.874C101.601 106.692 101.335 106.424 101.14 106.071C100.946 105.718 100.849 105.285 100.849 104.774C100.849 104.26 100.948 103.827 101.147 103.475C101.345 103.122 101.613 102.855 101.95 102.674C102.286 102.492 102.662 102.401 103.077 102.401C103.369 102.401 103.637 102.441 103.883 102.521C104.128 102.601 104.343 102.717 104.528 102.87C104.713 103.022 104.861 103.21 104.974 103.432C105.087 103.655 105.155 103.909 105.179 104.197ZM110.223 104.774C110.223 105.288 110.123 105.722 109.923 106.075C109.723 106.427 109.453 106.694 109.114 106.876C108.774 107.057 108.395 107.147 107.977 107.147C107.556 107.147 107.175 107.056 106.836 106.874C106.497 106.69 106.228 106.423 106.028 106.071C105.83 105.718 105.73 105.285 105.73 104.774C105.73 104.26 105.83 103.827 106.028 103.475C106.228 103.122 106.497 102.855 106.836 102.674C107.175 102.492 107.556 102.401 107.977 102.401C108.395 102.401 108.774 102.492 109.114 102.674C109.453 102.855 109.723 103.122 109.923 103.475C110.123 103.827 110.223 104.26 110.223 104.774ZM108.933 104.774C108.933 104.497 108.896 104.264 108.823 104.075C108.75 103.884 108.643 103.74 108.5 103.642C108.359 103.543 108.184 103.493 107.977 103.493C107.769 103.493 107.594 103.543 107.451 103.642C107.31 103.74 107.202 103.884 107.129 104.075C107.057 104.264 107.02 104.497 107.02 104.774C107.02 105.051 107.057 105.285 107.129 105.475C107.202 105.665 107.31 105.809 107.451 105.909C107.594 106.006 107.769 106.055 107.977 106.055C108.184 106.055 108.359 106.006 108.5 105.909C108.643 105.809 108.75 105.665 108.823 105.475C108.896 105.285 108.933 105.051 108.933 104.774ZM100.867 113.084V108.464H102.121V112.073H103.989V113.084H100.867ZM103.817 109.475V108.464H107.832V109.475H106.443V113.084H105.207V109.475H103.817ZM110.081 113.084H108.304V108.464H110.063C110.538 108.464 110.949 108.557 111.295 108.742C111.642 108.925 111.91 109.19 112.097 109.536C112.287 109.88 112.382 110.293 112.382 110.774C112.382 111.255 112.288 111.669 112.1 112.015C111.912 112.359 111.646 112.624 111.301 112.808C110.957 112.992 110.55 113.084 110.081 113.084ZM109.558 112.019H110.036C110.265 112.019 110.459 111.982 110.62 111.909C110.783 111.835 110.906 111.708 110.99 111.527C111.076 111.347 111.119 111.096 111.119 110.774C111.119 110.452 111.075 110.201 110.988 110.021C110.902 109.84 110.776 109.713 110.609 109.64C110.443 109.566 110.241 109.529 110 109.529H109.558V112.019Z" fill="#B01C12"/>
<rect x="98.4489" y="99.9632" width="16.3896" height="16.2409" stroke="white" stroke-width="1.21168"/>
</svg>
