<svg xmlns:dc="http://purl.org/dc/elements/1.1/" xmlns:cc="http://creativecommons.org/ns#" xmlns:rdf="http://www.w3.org/1999/02/22-rdf-syntax-ns#" xmlns:svg="http://www.w3.org/2000/svg" xmlns="http://www.w3.org/2000/svg" xmlns:sodipodi="http://sodipodi.sourceforge.net/DTD/sodipodi-0.dtd" xmlns:inkscape="http://www.inkscape.org/namespaces/inkscape" version="1.1" x="0px" y="0px" viewBox="0 0 100 125" enable-background="new 0 0 100 100" xml:space="preserve" id="svg2" inkscape:version="0.91 r13725" sodipodi:docname="Q9418_noun_390696_ccSergeyDemushkin_Psychology.svg"><metadata id="metadata14"><rdf:RDF><cc:Work rdf:about=""><dc:format>image/svg+xml</dc:format><dc:type rdf:resource="http://purl.org/dc/dcmitype/StillImage"/><dc:title/></cc:Work></rdf:RDF></metadata><defs id="defs12"/><sodipodi:namedview pagecolor="#97ae77" bordercolor="#97ae77" borderopacity="1" objecttolerance="10" gridtolerance="10" guidetolerance="10" inkscape:pageopacity="0" inkscape:pageshadow="2" inkscape:window-width="1680" inkscape:window-height="988" id="namedview10" showgrid="false" inkscape:zoom="5.3400704" inkscape:cx="28.769759" inkscape:cy="65.205258" inkscape:window-x="1272" inkscape:window-y="-8" inkscape:window-maximized="1" inkscape:current-layer="svg2"/><path d="m 55.853958,9.33 c -23.150866,0 -41.987114,18.834919 -41.987114,41.988444 l 0,2.541451 -11.9761903,22.367961 c -0.3296444,0.618082 -0.3110353,1.362441 0.047851,1.965903 0.358887,0.603461 1.0088712,0.968995 1.7093653,0.968995 l 10.2189736,0 0,15.195539 c 0,6.822837 5.552114,12.373627 12.376282,12.373627 l 17.544255,0 0,8.72493 c 0,0.52903 0.211345,1.03679 0.586182,1.41163 0.373509,0.37218 0.879938,0.58219 1.407634,0.58219 0.0026,0 0.0053,0 0.0066,0 l 38.11911,-0.10902 c 1.099258,-0.002 1.98717,-0.89588 1.98717,-1.99381 l 0,-34.732282 C 93.607535,72.737348 97.84373,62.366845 97.84373,51.318444 97.84373,28.164919 79.007483,9.33 55.853958,9.33 Z m 27.038809,43.260498 c -0.547636,6.027971 -3.410756,11.480395 -8.062995,15.353715 -4.107261,3.421389 -9.176871,5.246396 -14.460484,5.246396 -0.697836,0 -1.39966,-0.03058 -2.10547,-0.0957 -4.963274,-0.454591 -9.454678,-2.81394 -12.643455,-6.643397 -3.187448,-3.830785 -4.693443,-8.673101 -4.237524,-13.640361 0.792209,-8.618604 8.513596,-15.248708 16.850406,-14.48707 7.196348,0.65663 12.373625,6.285837 11.782126,12.81891 -0.560927,6.049238 -6.101078,9.769699 -10.910163,9.459994 l 0.345594,-5.303553 c 1.95527,0.11963 4.973908,-1.451498 5.270322,-4.641604 0.326985,-3.618111 -2.670385,-6.646054 -6.970382,-7.038171 -5.477678,-0.497125 -10.54596,3.927818 -11.072327,9.677984 -0.324327,3.551652 0.749675,7.014246 3.029272,9.75375 2.280926,2.739504 5.49097,4.426272 9.042621,4.7506 4.624325,0.421359 9.119717,-0.978299 12.679343,-3.943769 3.558297,-2.962811 5.750166,-7.136534 6.170198,-11.750224 C 78.134191,46.27143 76.33444,40.712669 72.528909,36.455207 68.751291,32.228316 63.333428,29.596478 57.270897,29.040869 43.619901,27.790081 33.450109,37.909363 31.958734,54.213465 l -5.292918,-0.482504 c 1.751899,-19.16855 14.534921,-31.491665 31.090242,-29.984339 7.405034,0.677897 14.059064,3.933135 18.737887,9.166238 4.795793,5.368683 7.068743,12.357674 6.398822,19.677638 z" id="path4" inkscape:connector-curvature="0"/></svg>