<svg width="107" height="51" viewBox="0 0 107 51" fill="none" xmlns="http://www.w3.org/2000/svg">
<path d="M0 28.1715H10.623C19.9915 28.1715 24.5778 22.9069 24.5778 14.1862C24.5778 5.46552 19.9915 0 10.623 0H0V28.1715ZM7.36943 21.7013V6.4702H10.8974C14.7781 6.4702 17.0908 9.28334 17.0908 14.1862C17.0908 19.0891 14.8173 21.7013 10.8974 21.7013H7.36943Z" fill="white"/>
<path d="M25.0844 28.1715H32.7674L34.1786 23.1481H42.4888L43.8999 28.1715H51.6222L43.1944 0.0401871H33.5122L25.0844 28.1715ZM35.4721 16.9994L38.1769 6.95246L38.4905 7.03283L41.1952 16.9994H35.4721Z" fill="white"/>
<path d="M53.9753 28.1715H61.3448V17.2003H64.8727L70.3998 28.1715H78.6316L71.2229 13.9049L77.926 0.0401871H70.2038L64.8727 10.8105H61.3448V0.0401871H53.9753V28.1715Z" fill="white"/>
<path d="M79.787 28.1715H87.47L88.8812 23.1481H97.1914L98.6026 28.1715H106.325L97.897 0.0401871H88.2148L79.787 28.1715ZM90.1748 16.9994L92.8795 6.95246L93.1931 7.03283L95.8979 16.9994H90.1748Z" fill="white"/>
<path d="M0 36.5864H4.94975V50.5873H9.77127V36.5864H14.721V32.438H0V36.5864Z" fill="white"/>
<path d="M16.3213 50.5873H21.1428V44.3647H25.6823C27.5801 44.3647 28.2982 45.4277 28.2982 47.6575C28.2982 48.7464 28.4777 49.8354 28.8368 50.5873H33.8122V50.2761C33.3249 49.4724 33.0428 47.9945 33.0428 46.8796C33.0428 44.4165 31.8374 42.6275 29.9139 42.2905V42.0312C32.0169 41.6423 33.0428 39.9052 33.0428 37.6754C33.0428 34.253 30.7602 32.438 26.6055 32.438H16.3213V50.5873ZM21.1428 40.683V36.1197H25.4001C27.2467 36.1197 28.1443 36.7939 28.1443 38.4014C28.1443 40.0089 27.221 40.683 25.4771 40.683H21.1428Z" fill="white"/>
<path d="M34.5864 50.5873H39.6131L40.5363 47.3463H45.9734L46.8966 50.5873H51.949L46.435 32.438H40.1003L34.5864 50.5873ZM41.3827 43.3794L43.1523 36.8976L43.3574 36.9494L45.127 43.3794H41.3827Z" fill="white"/>
<path d="M53.4886 50.5873H60.4387C66.5682 50.5873 69.5688 47.1908 69.5688 41.5645C69.5688 35.9382 66.5682 32.4121 60.4387 32.4121H53.4886V50.5873ZM58.3101 46.413V36.5864H60.6182C63.1572 36.5864 64.6704 38.4014 64.6704 41.5645C64.6704 44.7277 63.1829 46.413 60.6182 46.413H58.3101Z" fill="white"/>
<path d="M71.446 50.5873H85.5259V46.4389H76.2675V43.4313H84.7309V39.3607H76.2675V36.5864H85.2694V32.438H71.446V50.5873Z" fill="white"/>
<rect x="89.3612" y="33.0179" width="16.3896" height="16.2409" fill="white"/>
<path d="M96.0918 37.2514H94.8197C94.8107 37.1461 94.7866 37.0507 94.7475 36.965C94.7099 36.8792 94.6573 36.8056 94.5896 36.7439C94.5235 36.6808 94.443 36.6327 94.3483 36.5996C94.2536 36.565 94.1461 36.5477 94.0258 36.5477C93.8153 36.5477 93.6371 36.5988 93.4912 36.7011C93.3469 36.8033 93.2371 36.9499 93.1619 37.1409C93.0883 37.3318 93.0514 37.5611 93.0514 37.8288C93.0514 38.1115 93.089 38.3483 93.1642 38.5393C93.2409 38.7287 93.3514 38.8716 93.4957 38.9678C93.6401 39.0625 93.8138 39.1099 94.0168 39.1099C94.1325 39.1099 94.2363 39.0956 94.328 39.067C94.4197 39.037 94.4994 38.9941 94.5671 38.9385C94.6347 38.8828 94.6896 38.8159 94.7317 38.7377C94.7753 38.658 94.8047 38.5686 94.8197 38.4693L96.0918 38.4784C96.0767 38.6738 96.0218 38.8731 95.9271 39.0761C95.8324 39.2775 95.6978 39.464 95.5234 39.6354C95.3505 39.8053 95.1362 39.9421 94.8806 40.0459C94.625 40.1496 94.328 40.2015 93.9897 40.2015C93.5657 40.2015 93.1852 40.1105 92.8484 39.9286C92.5131 39.7467 92.2477 39.479 92.0523 39.1257C91.8583 38.7723 91.7613 38.34 91.7613 37.8288C91.7613 37.3145 91.8605 36.8815 92.059 36.5297C92.2575 36.1763 92.5251 35.9094 92.862 35.729C93.1988 35.547 93.5747 35.4561 93.9897 35.4561C94.2814 35.4561 94.5498 35.4959 94.7949 35.5756C95.04 35.6553 95.255 35.7718 95.4399 35.9252C95.6249 36.0771 95.7737 36.2643 95.8865 36.4868C95.9993 36.7093 96.0677 36.9642 96.0918 37.2514ZM101.136 37.8288C101.136 38.343 101.036 38.7768 100.836 39.1302C100.636 39.482 100.366 39.7489 100.026 39.9309C99.686 40.1113 99.3071 40.2015 98.8891 40.2015C98.4681 40.2015 98.0876 40.1105 97.7478 39.9286C97.4095 39.7452 97.1404 39.4775 96.9404 39.1257C96.7419 38.7723 96.6427 38.34 96.6427 37.8288C96.6427 37.3145 96.7419 36.8815 96.9404 36.5297C97.1404 36.1763 97.4095 35.9094 97.7478 35.729C98.0876 35.547 98.4681 35.4561 98.8891 35.4561C99.3071 35.4561 99.686 35.547 100.026 35.729C100.366 35.9094 100.636 36.1763 100.836 36.5297C101.036 36.8815 101.136 37.3145 101.136 37.8288ZM99.8454 37.8288C99.8454 37.5521 99.8085 37.3191 99.7349 37.1296C99.6627 36.9386 99.5552 36.7943 99.4123 36.6966C99.271 36.5973 99.0966 36.5477 98.8891 36.5477C98.6816 36.5477 98.5064 36.5973 98.3636 36.6966C98.2222 36.7943 98.1147 36.9386 98.041 37.1296C97.9689 37.3191 97.9328 37.5521 97.9328 37.8288C97.9328 38.1055 97.9689 38.3393 98.041 38.5302C98.1147 38.7197 98.2222 38.864 98.3636 38.9633C98.5064 39.061 98.6816 39.1099 98.8891 39.1099C99.0966 39.1099 99.271 39.061 99.4123 38.9633C99.5552 38.864 99.6627 38.7197 99.7349 38.5302C99.8085 38.3393 99.8454 38.1055 99.8454 37.8288ZM91.7793 46.1384V41.5192H93.0334V45.1279H94.9009V46.1384H91.7793ZM94.7295 42.5297V41.5192H98.7442V42.5297H97.3548V46.1384H96.1188V42.5297H94.7295ZM100.993 46.1384H99.2161V41.5192H100.975C101.451 41.5192 101.861 41.6117 102.207 41.7966C102.554 41.9801 102.822 42.2447 103.01 42.5905C103.199 42.9349 103.294 43.3476 103.294 43.8288C103.294 44.31 103.2 44.7235 103.012 45.0693C102.824 45.4136 102.558 45.6783 102.214 45.8632C101.869 46.0466 101.463 46.1384 100.993 46.1384ZM100.47 45.0738H100.948C101.177 45.0738 101.372 45.037 101.532 44.9633C101.695 44.8896 101.818 44.7625 101.902 44.5821C101.988 44.4017 102.031 44.1506 102.031 43.8288C102.031 43.507 101.987 43.2559 101.9 43.0755C101.814 42.895 101.688 42.768 101.521 42.6943C101.356 42.6206 101.153 42.5838 100.912 42.5838H100.47V45.0738Z" fill="#333333"/>
<rect x="89.3612" y="33.0179" width="16.3896" height="16.2409" stroke="white" stroke-width="1.21168"/>
</svg>
