<svg width="168" height="73" viewBox="0 0 168 73" fill="none" xmlns="http://www.w3.org/2000/svg">
<path d="M54.21 32.0823L54.2037 32.0898L54.1977 32.0975C52.9473 33.7073 52.299 35.7187 52.6818 37.7551C53.1984 41.052 56.2548 43.5532 59.6737 43.5532C63.4198 43.5532 66.5 46.6105 66.5 50.3085V53.9043H66.0547C59.7115 53.9043 54.0606 57.8535 51.9932 63.5H40.44V50.4256C40.44 46.7519 37.5009 43.7407 33.7102 43.4905L33.6937 43.4894H33.6772L33.645 43.4894C33.3213 43.4892 32.8057 43.489 32.3812 43.6182C29.0761 44.1423 26.56 47.1572 26.56 50.5425V63.5H15.0027C12.8334 57.749 7.3012 53.7872 0.94533 53.7872H0.5V50.1915C0.5 46.4987 3.57494 43.4362 7.44445 43.4362C9.46929 43.4362 11.505 42.5617 12.79 41.0347L12.7963 41.0272L12.8023 41.0195C14.0526 39.4098 14.701 37.3983 14.3182 35.3619C13.8017 32.0651 10.7453 29.5638 7.32628 29.5638C3.58018 29.5638 0.5 26.5065 0.5 22.8085V19.2128H0.94533C7.3012 19.2128 12.8334 15.251 15.0027 9.5H26.56V22.5745C26.56 26.2428 29.4933 29.2583 33.1705 29.5095L33.1875 29.5106H33.2046H33.2198C33.5643 29.5107 34.0777 29.5107 34.602 29.3845C37.9154 28.8679 40.44 25.8485 40.44 22.4575V9.5H51.9973C54.1666 15.251 59.6988 19.2128 66.0547 19.2128H66.5V22.8085C66.5 26.6235 63.4198 29.6808 59.5555 29.6808C57.5307 29.6808 55.495 30.5553 54.21 32.0823Z" stroke="#373737" stroke-opacity="0.8"/>
<path d="M88.032 21.524C89.1173 21.5827 90.2173 21.6413 91.332 21.7C92.4173 21.8467 93.444 22.2427 94.412 22.888C95.4093 23.504 96.2747 24.2667 97.008 25.176C97.7413 26.056 98.328 27.024 98.768 28.08C99.208 29.136 99.428 30.1627 99.428 31.16C99.428 32.392 99.164 33.5507 98.636 34.636C98.108 35.692 97.536 36.7187 96.92 37.716C95.9813 38.3907 95.0427 39.0507 94.104 39.696C93.1653 40.3413 92.1093 40.7373 90.936 40.884H90.584C90.1733 40.884 89.7773 40.8987 89.396 40.928C89.044 40.9573 88.6773 40.972 88.296 40.972H87.9C87.6947 40.972 87.5627 40.9573 87.504 40.928L87.372 41.016L87.636 41.324C87.5773 41.7053 87.5187 42.072 87.46 42.424C87.4307 42.7467 87.416 43.0987 87.416 43.48V43.832C87.416 44.0373 87.4307 44.1693 87.46 44.228C87.3427 44.2573 87.284 44.316 87.284 44.404C87.284 44.4627 87.2987 44.5213 87.328 44.58C87.3573 44.6093 87.372 44.6533 87.372 44.712C87.372 44.7707 87.3573 44.8 87.328 44.8V45.108L87.372 45.02C87.4307 45.2253 87.46 45.4307 87.46 45.636C87.46 45.812 87.46 46.0027 87.46 46.208V47.044V48.496C87.46 48.8187 87.46 49.156 87.46 49.508C87.4893 49.8307 87.504 50.1533 87.504 50.476V50.52C87.4747 50.52 87.4307 50.4907 87.372 50.432V50.52C87.372 50.6373 87.4453 50.7693 87.592 50.916C87.4747 51.0333 87.416 51.1947 87.416 51.4C87.416 51.5467 87.46 51.6347 87.548 51.664C87.6653 51.664 87.724 51.708 87.724 51.796L87.548 52.016C87.3133 51.8987 87.1373 51.84 87.02 51.84C86.9613 51.84 86.6973 51.972 86.228 52.236L86.14 52.28C86.052 52.2213 86.008 52.192 86.008 52.192C86.008 52.1627 85.9347 52.148 85.788 52.148C85.6413 52.148 85.3627 52.1773 84.952 52.236C84.5707 52.2653 84.2187 52.28 83.896 52.28H80.948C80.772 52.28 80.6547 52.3973 80.596 52.632C80.5373 52.5733 80.464 52.5 80.376 52.412C80.3173 52.2947 80.244 52.236 80.156 52.236C80.0973 52.236 80.024 52.28 79.936 52.368C79.9067 52.368 79.892 52.368 79.892 52.368C79.892 52.3387 79.8773 52.324 79.848 52.324H79.76C79.76 52.2653 79.848 52.192 80.024 52.104C80.2 51.9867 80.288 51.8253 80.288 51.62C80.288 51.2093 80.2587 50.828 80.2 50.476C80.1707 50.124 80.156 49.7573 80.156 49.376C80.156 48.672 80.2 47.8947 80.288 47.044C80.2293 45.284 80.1853 43.8027 80.156 42.6C80.1267 41.3973 80.0973 40.3853 80.068 39.564C80.0387 38.7133 80.024 38.024 80.024 37.496C80.024 36.968 80.024 36.4987 80.024 36.088C80.024 35.472 80.024 34.8707 80.024 34.284C80.0533 33.668 80.068 32.7733 80.068 31.6V29.4C80.068 29.0187 80.068 28.652 80.068 28.3C80.068 27.9187 80.0827 27.5373 80.112 27.156C80.0533 26.892 79.9947 26.3787 79.936 25.616C79.9067 24.824 79.892 23.768 79.892 22.448C79.892 22.2427 80.0093 22.0667 80.244 21.92C80.4787 21.7733 80.772 21.6707 81.124 21.612C81.476 21.524 81.8573 21.4653 82.268 21.436C82.6787 21.4067 83.0747 21.392 83.456 21.392H84.732C85.8467 21.392 86.9467 21.436 88.032 21.524ZM96.084 37.76C96.7587 37.1733 97.1547 36.5867 97.272 36C97.5653 35.7067 97.7707 35.3693 97.888 34.988C98.0347 34.6067 98.1227 34.2107 98.152 33.8C98.2107 33.36 98.2547 32.9347 98.284 32.524C98.3133 32.084 98.372 31.688 98.46 31.336C98.4013 30.6907 98.2987 30.06 98.152 29.444C98.0053 28.828 97.8293 28.2267 97.624 27.64L96.04 25.44C95.8933 25.3227 95.7027 25.1613 95.468 24.956C95.2333 24.7213 94.984 24.5013 94.72 24.296C94.456 24.0613 94.2067 23.8707 93.972 23.724C93.7373 23.548 93.5467 23.46 93.4 23.46C93.048 23.46 92.6227 23.4013 92.124 23.284C91.6547 23.1373 91.1267 22.9907 90.54 22.844C89.9827 22.668 89.396 22.5213 88.78 22.404C88.164 22.2573 87.548 22.184 86.932 22.184H86.316C86.2867 22.184 86.184 22.1987 86.008 22.228C85.832 22.228 85.7147 22.228 85.656 22.228C85.5387 22.228 85.4653 22.184 85.436 22.096C85.26 22.1547 85.0547 22.1693 84.82 22.14C84.6147 22.1107 84.468 22.1693 84.38 22.316C84.2627 22.316 84.1747 22.2867 84.116 22.228H83.368C83.3093 22.228 83.236 22.2573 83.148 22.316C83.0893 22.3453 83.0307 22.36 82.972 22.36C82.9427 22.36 82.8987 22.3307 82.84 22.272L81.96 22.492C81.7253 22.492 81.5933 22.5067 81.564 22.536C81.5347 23.3867 81.5053 24.1933 81.476 24.956C81.476 25.7187 81.4173 26.5107 81.3 27.332C81.3293 27.508 81.344 27.684 81.344 27.86C81.3733 28.0067 81.388 28.1533 81.388 28.3C81.388 28.4467 81.3733 28.872 81.344 29.576C81.3147 30.28 81.2707 31.292 81.212 32.612C81.1533 33.932 81.1093 34.9293 81.08 35.604C81.08 36.2493 81.08 36.6013 81.08 36.66C81.1093 36.7187 81.124 36.8507 81.124 37.056C81.0067 38.376 80.9187 39.476 80.86 40.356C80.8013 41.2067 80.772 41.8667 80.772 42.336C80.772 43.0987 80.816 43.876 80.904 44.668C80.816 45.02 80.772 45.3573 80.772 45.68C80.772 46.032 80.7867 46.384 80.816 46.736C80.8747 47.088 80.904 47.4253 80.904 47.748C80.904 48.1 80.8893 48.3053 80.86 48.364C80.86 48.4227 80.86 48.5253 80.86 48.672C80.8893 48.8187 80.9187 48.98 80.948 49.156C80.9773 49.332 80.992 49.508 80.992 49.684C81.0213 49.8307 81.036 49.9333 81.036 49.992C81.036 50.1093 81.0213 50.212 80.992 50.3C80.992 50.3587 80.992 50.432 80.992 50.52C80.992 50.696 81.0213 50.8573 81.08 51.004C81.168 51.1507 81.212 51.2533 81.212 51.312C81.212 51.3707 81.1973 51.4147 81.168 51.444C81.168 51.444 81.168 51.4733 81.168 51.532L81.564 51.576C81.6227 51.6347 81.6667 51.664 81.696 51.664H81.872C81.9307 51.664 81.9893 51.708 82.048 51.796C82.4 51.8253 82.752 51.8547 83.104 51.884C83.456 51.884 83.808 51.884 84.16 51.884C84.3947 51.884 84.644 51.8693 84.908 51.84C85.2013 51.8107 85.4653 51.7813 85.7 51.752C85.9347 51.6933 86.1253 51.6493 86.272 51.62C86.448 51.5907 86.536 51.5613 86.536 51.532V51.18L86.624 51.224C86.6827 51.224 86.7267 50.9893 86.756 50.52C86.8147 50.0213 86.844 49.5667 86.844 49.156V48.584C86.844 48.3493 86.8293 48.1147 86.8 47.88C86.8 47.6453 86.8 47.4107 86.8 47.176C86.8 46.8533 86.8 46.56 86.8 46.296C86.8293 46.0027 86.8587 45.724 86.888 45.46C86.8 45.1373 86.7707 44.6973 86.8 44.14C86.8587 43.5827 86.8293 43.0987 86.712 42.688C86.5653 42.5413 86.492 42.3653 86.492 42.16C86.492 42.0427 86.5067 41.9253 86.536 41.808C86.5653 41.6613 86.58 41.5147 86.58 41.368C86.58 41.1333 86.5653 40.9427 86.536 40.796C86.5067 40.6493 86.492 40.5467 86.492 40.488C86.492 40.4293 86.5067 40.4 86.536 40.4C86.5653 40.3707 86.58 40.3267 86.58 40.268C86.58 40.2093 86.5653 40.1653 86.536 40.136C86.5067 40.0773 86.492 40.0187 86.492 39.96C86.492 39.8427 86.5947 39.784 86.8 39.784L86.844 39.52C87.0787 39.52 87.196 39.7107 87.196 40.092C87.724 40.2973 88.4427 40.4 89.352 40.4C90.496 40.4 91.4347 40.224 92.168 39.872C92.9013 39.52 93.488 39.256 93.928 39.08C94.6907 38.7867 95.4093 38.3467 96.084 37.76ZM86.932 28.168C87.0787 28.168 87.196 28.124 87.284 28.036C87.3427 28.0067 87.4893 27.992 87.724 27.992H88.208C88.6773 27.992 89.1907 28.0653 89.748 28.212C90.3347 28.3587 90.8773 28.5933 91.376 28.916C91.904 29.2093 92.3293 29.576 92.652 30.016C93.004 30.456 93.18 30.9693 93.18 31.556C93.18 32.3187 93.048 32.8907 92.784 33.272C92.5493 33.624 92.2413 33.888 91.86 34.064C91.4787 34.2107 91.068 34.3133 90.628 34.372C90.188 34.4307 89.7773 34.5187 89.396 34.636C88.8973 34.6947 88.428 34.724 87.988 34.724C87.548 34.724 87.0787 34.7387 86.58 34.768C86.58 34.7093 86.5213 34.636 86.404 34.548C86.316 34.4307 86.272 34.328 86.272 34.24C86.272 34.1813 86.3307 34.108 86.448 34.02L86.272 28.432C86.272 28.2267 86.3893 28.124 86.624 28.124C86.6827 28.124 86.7267 28.1387 86.756 28.168C86.8147 28.168 86.8733 28.168 86.932 28.168ZM89.924 33.624C90.54 33.448 91.1413 33.2573 91.728 33.052C92.08 32.612 92.256 32.084 92.256 31.468C92.256 30.8227 92.0947 30.3387 91.772 30.016C91.4493 29.6933 91.0533 29.4587 90.584 29.312C90.1147 29.136 89.616 29.0187 89.088 28.96C88.56 28.872 88.0907 28.7547 87.68 28.608C87.328 28.6667 87.108 28.7107 87.02 28.74C86.932 28.74 86.888 28.828 86.888 29.004C86.888 29.2093 86.9027 29.6933 86.932 30.456C86.9613 31.2187 87.0933 32.348 87.328 33.844C87.416 33.9027 87.5333 33.932 87.68 33.932C87.8267 33.932 87.9293 33.9613 87.988 34.02C88.6627 33.9027 89.308 33.7707 89.924 33.624ZM107.351 30.324C107.586 30.324 107.718 30.3093 107.747 30.28C107.776 30.8667 107.791 31.468 107.791 32.084C107.82 32.6707 107.835 33.272 107.835 33.888C107.835 36.5573 107.762 39.256 107.615 41.984C107.468 44.712 107.395 47.3227 107.395 49.816V51.268C107.454 51.4147 107.512 51.532 107.571 51.62C107.659 51.6787 107.703 51.7813 107.703 51.928C107.703 52.1333 107.483 52.2653 107.043 52.324C106.603 52.3827 106.178 52.412 105.767 52.412H105.107C104.491 52.412 103.89 52.3973 103.303 52.368C102.716 52.3387 102.174 52.324 101.675 52.324C101.528 52.3533 101.455 52.4267 101.455 52.544C101.484 52.6907 101.44 52.764 101.323 52.764C101.235 52.764 101.176 52.632 101.147 52.368C101.118 52.104 101.103 51.8107 101.103 51.488V49.904C101.103 47.2347 101.162 44.4773 101.279 41.632C101.426 38.7867 101.587 35.9413 101.763 33.096V30.94C101.763 30.7053 101.734 30.4707 101.675 30.236C101.851 30.148 102.086 30.104 102.379 30.104C102.79 30.104 103.215 30.148 103.655 30.236C104.124 30.324 104.52 30.368 104.843 30.368C104.96 30.368 105.224 30.368 105.635 30.368C106.046 30.368 106.618 30.3533 107.351 30.324ZM103.479 51.356C104.124 51.3853 105.136 51.4 106.515 51.4H106.867C106.984 47.9387 107.043 44.536 107.043 41.192C107.072 37.8187 107.19 34.4013 107.395 30.94C107.248 30.9693 107.116 30.984 106.999 30.984C106.882 30.984 106.75 30.984 106.603 30.984H105.811C105.166 30.984 104.55 30.9693 103.963 30.94C103.406 30.9107 102.907 30.8667 102.467 30.808C102.232 31.3653 102.115 31.996 102.115 32.7C102.144 33.3747 102.13 34.064 102.071 34.768C101.836 36.088 101.719 37.408 101.719 38.728C101.748 40.0187 101.719 41.28 101.631 42.512C101.572 43.3627 101.528 44.1987 101.499 45.02C101.47 45.8413 101.455 46.648 101.455 47.44C101.455 48.056 101.455 48.672 101.455 49.288C101.484 49.904 101.514 50.52 101.543 51.136C101.631 51.136 101.675 51.1507 101.675 51.18C101.704 51.2093 101.851 51.2387 102.115 51.268C102.379 51.2973 102.834 51.3267 103.479 51.356ZM101.499 21.964C101.528 21.788 101.572 21.5973 101.631 21.392C101.631 21.216 101.572 21.128 101.455 21.128C101.338 21.0987 101.279 20.996 101.279 20.82C102.188 20.8493 103.054 20.908 103.875 20.996C104.726 21.084 105.62 21.128 106.559 21.128H107.087C107.351 21.128 107.527 21.1133 107.615 21.084C107.586 21.1427 107.571 21.304 107.571 21.568V22.184C107.571 22.8587 107.6 23.6067 107.659 24.428C107.718 25.22 107.791 25.9827 107.879 26.716C107.732 26.7747 107.674 26.8773 107.703 27.024C107.732 27.1707 107.703 27.3173 107.615 27.464C107.527 27.464 107.483 27.3907 107.483 27.244V26.98C107.483 26.892 107.41 26.848 107.263 26.848C107.028 26.848 106.647 26.848 106.119 26.848C105.591 26.848 105.048 26.8773 104.491 26.936C103.963 26.9653 103.494 27.024 103.083 27.112C102.672 27.1707 102.467 27.2587 102.467 27.376C102.379 27.288 102.291 27.244 102.203 27.244H102.115C102.056 27.244 101.939 26.8333 101.763 26.012C101.587 25.1613 101.499 23.988 101.499 22.492C101.499 22.316 101.499 22.14 101.499 21.964ZM102.995 21.832C102.584 21.832 102.35 21.8173 102.291 21.788L102.203 22.228C102.262 22.7267 102.306 23.152 102.335 23.504C102.364 23.856 102.394 24.1347 102.423 24.34V24.252C102.452 24.252 102.482 24.3547 102.511 24.56C102.57 24.7653 102.614 25.0147 102.643 25.308C102.702 25.572 102.746 25.836 102.775 26.1C102.834 26.364 102.863 26.5547 102.863 26.672C102.98 26.672 103.098 26.672 103.215 26.672C103.362 26.6427 103.508 26.628 103.655 26.628C103.919 26.628 104.198 26.6427 104.491 26.672C104.784 26.672 105.092 26.672 105.415 26.672C105.767 26.672 106.104 26.6573 106.427 26.628C106.779 26.5987 107.102 26.5253 107.395 26.408C107.336 25.704 107.248 25 107.131 24.296C107.014 23.5627 106.955 22.844 106.955 22.14C106.955 21.7587 106.97 21.5387 106.999 21.48C106.911 21.4213 106.75 21.3773 106.515 21.348C106.28 21.2893 106.046 21.26 105.811 21.26H105.635C105.635 21.3187 105.635 21.3627 105.635 21.392C105.664 21.4213 105.679 21.4653 105.679 21.524C105.679 21.5827 105.547 21.6413 105.283 21.7C105.048 21.7293 104.77 21.7587 104.447 21.788C104.154 21.788 103.86 21.8027 103.567 21.832C103.274 21.832 103.083 21.832 102.995 21.832ZM122.62 41.72C121.887 41.632 121.139 41.5733 120.376 41.544L120.156 41.632C120.01 41.632 119.848 41.6027 119.672 41.544C119.496 41.4853 119.335 41.456 119.188 41.456C118.983 41.456 118.763 41.4707 118.528 41.5C118.294 41.5293 118.059 41.544 117.824 41.544C117.56 41.544 117.282 41.5147 116.988 41.456C116.724 41.3973 116.446 41.2947 116.152 41.148C116.328 41.7347 116.446 42.38 116.504 43.084C116.563 43.7587 116.666 44.404 116.812 45.02C116.959 45.636 117.194 46.1493 117.516 46.56C117.868 46.9707 118.426 47.176 119.188 47.176C120.186 47.176 120.89 46.824 121.3 46.12C121.711 45.3867 121.946 44.5507 122.004 43.612C122.386 43.6707 122.811 43.7147 123.28 43.744C123.75 43.7733 124.19 43.788 124.6 43.788C125.04 43.788 125.422 43.788 125.744 43.788C126.096 43.788 126.346 43.788 126.492 43.788C126.756 43.788 126.947 43.7293 127.064 43.612C127.064 44.052 127.064 44.536 127.064 45.064C127.094 45.5627 127.108 46.0613 127.108 46.56C127.108 47.3227 127.05 48.0707 126.932 48.804C126.844 49.508 126.624 50.0653 126.272 50.476C125.95 50.828 125.539 51.1653 125.04 51.488C124.542 51.7813 123.97 52.06 123.324 52.324C122.679 52.5587 121.99 52.7347 121.256 52.852C120.552 52.9987 119.848 53.072 119.144 53.072C117.619 53.072 116.284 52.808 115.14 52.28C114.026 51.752 113.087 51.0333 112.324 50.124C111.591 49.2147 111.034 48.1587 110.652 46.956C110.3 45.724 110.124 44.4187 110.124 43.04V39.916C110.124 38.2147 110.3 36.6453 110.652 35.208C111.004 33.7707 111.635 32.612 112.544 31.732C112.75 31.5267 113.072 31.3213 113.512 31.116C113.952 30.8813 114.466 30.676 115.052 30.5C115.668 30.324 116.343 30.192 117.076 30.104C117.81 29.9867 118.572 29.928 119.364 29.928C120.127 29.928 120.875 30.016 121.608 30.192C122.371 30.3387 123.06 30.5587 123.676 30.852C124.322 31.116 124.864 31.4387 125.304 31.82C125.744 32.2013 126.038 32.612 126.184 33.052C126.331 33.3747 126.419 33.7267 126.448 34.108C126.507 34.4893 126.668 34.7533 126.932 34.9C127.05 35.5747 127.167 36.2933 127.284 37.056C127.431 37.8187 127.504 38.5813 127.504 39.344C127.504 40.1067 127.446 40.6787 127.328 41.06C127.006 41.3827 126.624 41.588 126.184 41.676C125.744 41.764 125.246 41.808 124.688 41.808C124.043 41.808 123.354 41.7787 122.62 41.72ZM115.888 40.532C116.035 40.532 116.182 40.4 116.328 40.136C116.475 40.2827 116.636 40.356 116.812 40.356C116.988 40.356 117.164 40.3413 117.34 40.312C117.546 40.2533 117.766 40.224 118 40.224C118.411 40.224 118.807 40.2827 119.188 40.4C119.57 40.488 119.966 40.5613 120.376 40.62C120.787 40.6787 121.447 40.7227 122.356 40.752C123.295 40.7813 124.483 40.84 125.92 40.928C126.272 40.928 126.492 40.9133 126.58 40.884C126.727 40.4733 126.815 40.0627 126.844 39.652C126.903 39.212 126.932 38.7867 126.932 38.376C126.932 34.8853 125.832 32.5827 123.632 31.468C123.192 31.2333 122.547 31.072 121.696 30.984C120.846 30.8667 119.907 30.808 118.88 30.808C118.059 30.808 117.15 30.896 116.152 31.072C115.184 31.2187 114.26 31.6 113.38 32.216C112.53 32.8027 111.811 33.6827 111.224 34.856C110.638 36 110.344 37.5693 110.344 39.564C110.344 41.1773 110.491 42.7027 110.784 44.14C111.107 45.5773 111.547 46.8533 112.104 47.968C112.662 49.0827 113.307 49.992 114.04 50.696C114.774 51.3707 115.566 51.752 116.416 51.84C117.003 51.8987 117.546 51.9427 118.044 51.972C118.572 51.972 119.086 51.972 119.584 51.972C120.435 51.972 121.124 51.9573 121.652 51.928C122.21 51.8987 122.679 51.8253 123.06 51.708C123.442 51.5613 123.779 51.3707 124.072 51.136C124.366 50.872 124.688 50.52 125.04 50.08C126.067 48.5253 126.58 46.5453 126.58 44.14C126.287 44.1107 126.023 44.096 125.788 44.096C125.554 44.0667 125.319 44.052 125.084 44.052H123.5C123.383 44.052 123.266 44.052 123.148 44.052C123.06 44.052 122.943 44.0373 122.796 44.008C122.62 44.4187 122.43 44.888 122.224 45.416C122.048 45.9147 121.828 46.384 121.564 46.824C121.3 47.264 120.978 47.6307 120.596 47.924C120.215 48.2173 119.746 48.364 119.188 48.364C118.543 48.364 117.971 48.2027 117.472 47.88C116.974 47.528 116.548 47.088 116.196 46.56C115.874 46.032 115.624 45.4307 115.448 44.756C115.272 44.0813 115.184 43.4067 115.184 42.732C115.184 42.0867 115.302 41.3387 115.536 40.488C115.595 40.488 115.654 40.5027 115.712 40.532C115.771 40.532 115.83 40.532 115.888 40.532ZM122.268 38.464C122.268 38.4053 122.239 38.3467 122.18 38.288C121.975 38.4053 121.52 38.464 120.816 38.464C120.112 38.464 119.35 38.376 118.528 38.2C117.736 37.9947 117.091 37.892 116.592 37.892C116.211 37.892 115.991 38.0533 115.932 38.376C115.844 38.2587 115.727 38.156 115.58 38.068C115.463 37.9507 115.404 37.7747 115.404 37.54C115.404 37.3347 115.419 37.1293 115.448 36.924C115.507 36.7187 115.536 36.5133 115.536 36.308C115.536 36.044 115.522 35.8973 115.492 35.868C115.668 35.692 115.83 35.4867 115.976 35.252L116.46 34.548C116.636 34.3133 116.827 34.1227 117.032 33.976C117.238 33.8 117.502 33.712 117.824 33.712C118.118 33.712 118.352 33.7853 118.528 33.932C118.704 34.0493 118.939 34.108 119.232 34.108C119.35 34.108 119.452 34.108 119.54 34.108C119.658 34.0787 119.775 34.064 119.892 34.064C120.156 34.064 120.391 34.152 120.596 34.328C120.802 34.4747 121.022 34.548 121.256 34.548C121.374 34.548 121.447 34.5333 121.476 34.504C121.799 34.8853 122.122 35.3107 122.444 35.78C122.796 36.22 122.972 36.7333 122.972 37.32C122.972 37.4667 122.899 37.7013 122.752 38.024C122.606 38.3467 122.503 38.508 122.444 38.508C122.356 38.508 122.298 38.4933 122.268 38.464ZM116.416 36.748C116.504 36.924 116.548 37.1293 116.548 37.364C116.607 37.3347 116.93 37.32 117.516 37.32C118.132 37.32 118.675 37.32 119.144 37.32C119.643 37.32 120.01 37.3347 120.244 37.364C120.274 37.3347 120.288 37.3053 120.288 37.276C120.259 37.276 120.244 37.2613 120.244 37.232V37.144C120.626 37.232 120.831 37.2907 120.86 37.32C120.86 37.2027 120.963 37.144 121.168 37.144C121.286 37.144 121.418 37.1587 121.564 37.188C121.74 37.188 121.902 37.188 122.048 37.188C122.048 36.4253 121.902 35.8093 121.608 35.34C121.315 34.8707 120.714 34.636 119.804 34.636C119.394 34.636 118.983 34.68 118.572 34.768C118.162 34.8267 117.78 34.9293 117.428 35.076C117.106 35.1933 116.827 35.3547 116.592 35.56C116.387 35.736 116.284 35.9413 116.284 36.176C116.284 36.352 116.328 36.5427 116.416 36.748ZM145.691 43.392C145.662 43.2453 145.721 43.172 145.867 43.172C146.278 43.172 146.586 43.2453 146.791 43.392C146.997 43.5093 147.099 43.9347 147.099 44.668C147.099 45.3427 147.055 46.0907 146.967 46.912C146.909 47.704 146.791 48.4813 146.615 49.244C146.439 50.0067 146.19 50.696 145.867 51.312C145.574 51.8987 145.193 52.3093 144.723 52.544C144.283 52.7787 143.814 52.9253 143.315 52.984C142.817 53.072 142.274 53.116 141.687 53.116C140.983 53.116 140.338 53.0867 139.751 53.028C139.194 52.9693 138.739 52.94 138.387 52.94C137.947 52.94 137.595 52.9547 137.331 52.984C137.097 53.0133 136.862 53.028 136.627 53.028C136.187 53.028 135.733 52.94 135.263 52.764C134.823 52.588 134.413 52.3973 134.031 52.192C133.65 51.9573 133.327 51.752 133.063 51.576C132.799 51.3707 132.653 51.2533 132.623 51.224C131.949 50.7547 131.406 50.0947 130.995 49.244C130.614 48.3933 130.321 47.4547 130.115 46.428C129.939 45.372 129.822 44.272 129.763 43.128C129.734 41.9547 129.719 40.8107 129.719 39.696C129.719 38.816 129.734 37.9213 129.763 37.012C129.822 36.1027 129.91 35.2667 130.027 34.504C130.145 33.712 130.321 33.0373 130.555 32.48C130.79 31.8933 131.098 31.4827 131.479 31.248C131.626 31.1893 131.802 31.1453 132.007 31.116C132.213 31.0867 132.433 31.0427 132.667 30.984C132.99 30.8667 133.269 30.7493 133.503 30.632C133.738 30.4853 133.987 30.3533 134.251 30.236C134.515 30.0893 134.823 29.972 135.175 29.884C135.527 29.796 135.997 29.752 136.583 29.752C137.17 29.752 137.595 29.7813 137.859 29.84C138.153 29.8987 138.505 29.9867 138.915 30.104C139.531 30.192 140.162 30.2213 140.807 30.192C141.482 30.1627 142.083 30.2213 142.611 30.368C143.227 30.5147 143.726 30.6907 144.107 30.896C144.518 31.1013 144.841 31.3507 145.075 31.644C145.339 31.9373 145.559 32.2893 145.735 32.7C145.911 33.1107 146.087 33.624 146.263 34.24C146.498 35.0907 146.733 35.824 146.967 36.44C147.231 37.0267 147.363 37.672 147.363 38.376C147.363 39.08 147.085 39.5053 146.527 39.652C145.999 39.7987 145.354 39.872 144.591 39.872C144.063 39.872 143.521 39.828 142.963 39.74C142.435 39.6227 141.907 39.564 141.379 39.564C141.262 39.564 141.159 39.5787 141.071 39.608C140.983 39.608 140.895 39.608 140.807 39.608C140.573 38.9333 140.25 38.3173 139.839 37.76C139.458 37.1733 138.886 36.88 138.123 36.88C137.771 36.88 137.434 36.9827 137.111 37.188C136.818 37.364 136.554 37.5987 136.319 37.892C136.085 38.1853 135.894 38.508 135.747 38.86C135.63 39.212 135.571 39.564 135.571 39.916C135.571 40.5907 135.586 41.0893 135.615 41.412C135.674 41.7347 135.703 42.0573 135.703 42.38C135.703 42.556 135.689 42.7173 135.659 42.864C135.63 43.0107 135.615 43.1573 135.615 43.304C135.615 43.8027 135.747 44.2427 136.011 44.624C136.305 44.976 136.657 45.2693 137.067 45.504C137.478 45.7093 137.889 45.8707 138.299 45.988C138.739 46.076 139.121 46.12 139.443 46.12C139.795 46.12 140.133 46.0467 140.455 45.9C140.778 45.7533 141.042 45.5187 141.247 45.196C141.247 45.1373 141.233 45.0933 141.203 45.064C141.203 45.0347 141.203 45.0053 141.203 44.976C141.203 44.5653 141.335 44.228 141.599 43.964C141.893 43.6707 142.186 43.524 142.479 43.524C142.802 43.524 143.125 43.5533 143.447 43.612C143.77 43.6413 144.093 43.656 144.415 43.656C144.767 43.656 145.119 43.612 145.471 43.524L145.559 43.568C145.677 43.568 145.721 43.5093 145.691 43.392ZM146.219 47C146.249 46.9707 146.263 46.9413 146.263 46.912C146.263 46.6187 146.263 46.34 146.263 46.076C146.293 45.7827 146.307 45.4747 146.307 45.152V44.668C145.633 44.668 144.987 44.6533 144.371 44.624C143.785 44.5653 143.154 44.492 142.479 44.404C142.421 44.5507 142.391 44.6973 142.391 44.844C142.391 44.9907 142.347 45.1373 142.259 45.284C142.113 45.5187 141.863 45.768 141.511 46.032C141.159 46.2667 140.763 46.4867 140.323 46.692C139.883 46.868 139.429 47.0147 138.959 47.132C138.519 47.2493 138.123 47.308 137.771 47.308C137.185 47.308 136.73 47.1613 136.407 46.868C136.085 46.5453 135.835 46.1933 135.659 45.812C135.483 45.4307 135.366 45.064 135.307 44.712C135.278 44.36 135.263 44.14 135.263 44.052V43.92C135.263 43.6853 135.219 43.304 135.131 42.776C135.043 42.248 134.999 41.676 134.999 41.06C134.999 40.2973 135.073 39.5787 135.219 38.904C135.395 38.2 135.645 37.5987 135.967 37.1C136.319 36.572 136.73 36.1613 137.199 35.868C137.698 35.5453 138.255 35.384 138.871 35.384C139.194 35.384 139.502 35.56 139.795 35.912C140.089 36.2347 140.338 36.616 140.543 37.056C140.778 37.4667 140.969 37.8773 141.115 38.288C141.291 38.6693 141.409 38.904 141.467 38.992C141.995 38.7573 142.479 38.64 142.919 38.64C143.271 38.64 143.579 38.6547 143.843 38.684C144.107 38.7133 144.401 38.728 144.723 38.728C144.929 38.728 145.163 38.728 145.427 38.728C145.721 38.6987 146.058 38.6693 146.439 38.64C146.439 37.9947 146.425 37.3933 146.395 36.836C146.395 36.2787 146.337 35.7507 146.219 35.252C146.102 34.724 145.897 34.2107 145.603 33.712C145.31 33.2133 144.899 32.7 144.371 32.172C144.107 31.908 143.814 31.6147 143.491 31.292C143.198 30.9693 142.89 30.764 142.567 30.676C142.01 30.5293 141.306 30.456 140.455 30.456C139.634 30.4267 138.798 30.412 137.947 30.412C137.771 30.4413 137.463 30.4853 137.023 30.544C136.583 30.5733 136.114 30.6173 135.615 30.676C135.117 30.7347 134.603 30.8227 134.075 30.94C133.577 31.0573 133.166 31.204 132.843 31.38C132.139 31.7907 131.597 32.4213 131.215 33.272C130.863 34.0933 130.599 35.0173 130.423 36.044C130.277 37.0413 130.189 38.068 130.159 39.124C130.159 40.18 130.159 41.1333 130.159 41.984C130.159 43.5093 130.277 44.9173 130.511 46.208C130.775 47.4693 131.201 48.5693 131.787 49.508C132.374 50.4173 133.151 51.136 134.119 51.664C135.087 52.192 136.29 52.456 137.727 52.456C138.959 52.456 140.074 52.3973 141.071 52.28C142.069 52.1627 142.919 51.9427 143.623 51.62C144.357 51.2973 144.914 50.8573 145.295 50.3C145.706 49.7427 145.911 49.0093 145.911 48.1C145.911 47.748 145.867 47.352 145.779 46.912H145.867C145.955 46.912 146.014 46.9413 146.043 47C146.102 47.0293 146.161 47.044 146.219 47.044V47ZM161.636 41.72C160.903 41.632 160.155 41.5733 159.392 41.544L159.172 41.632C159.025 41.632 158.864 41.6027 158.688 41.544C158.512 41.4853 158.351 41.456 158.204 41.456C157.999 41.456 157.779 41.4707 157.544 41.5C157.309 41.5293 157.075 41.544 156.84 41.544C156.576 41.544 156.297 41.5147 156.004 41.456C155.74 41.3973 155.461 41.2947 155.168 41.148C155.344 41.7347 155.461 42.38 155.52 43.084C155.579 43.7587 155.681 44.404 155.828 45.02C155.975 45.636 156.209 46.1493 156.532 46.56C156.884 46.9707 157.441 47.176 158.204 47.176C159.201 47.176 159.905 46.824 160.316 46.12C160.727 45.3867 160.961 44.5507 161.02 43.612C161.401 43.6707 161.827 43.7147 162.296 43.744C162.765 43.7733 163.205 43.788 163.616 43.788C164.056 43.788 164.437 43.788 164.76 43.788C165.112 43.788 165.361 43.788 165.508 43.788C165.772 43.788 165.963 43.7293 166.08 43.612C166.08 44.052 166.08 44.536 166.08 45.064C166.109 45.5627 166.124 46.0613 166.124 46.56C166.124 47.3227 166.065 48.0707 165.948 48.804C165.86 49.508 165.64 50.0653 165.288 50.476C164.965 50.828 164.555 51.1653 164.056 51.488C163.557 51.7813 162.985 52.06 162.34 52.324C161.695 52.5587 161.005 52.7347 160.272 52.852C159.568 52.9987 158.864 53.072 158.16 53.072C156.635 53.072 155.3 52.808 154.156 52.28C153.041 51.752 152.103 51.0333 151.34 50.124C150.607 49.2147 150.049 48.1587 149.668 46.956C149.316 45.724 149.14 44.4187 149.14 43.04V39.916C149.14 38.2147 149.316 36.6453 149.668 35.208C150.02 33.7707 150.651 32.612 151.56 31.732C151.765 31.5267 152.088 31.3213 152.528 31.116C152.968 30.8813 153.481 30.676 154.068 30.5C154.684 30.324 155.359 30.192 156.092 30.104C156.825 29.9867 157.588 29.928 158.38 29.928C159.143 29.928 159.891 30.016 160.624 30.192C161.387 30.3387 162.076 30.5587 162.692 30.852C163.337 31.116 163.88 31.4387 164.32 31.82C164.76 32.2013 165.053 32.612 165.2 33.052C165.347 33.3747 165.435 33.7267 165.464 34.108C165.523 34.4893 165.684 34.7533 165.948 34.9C166.065 35.5747 166.183 36.2933 166.3 37.056C166.447 37.8187 166.52 38.5813 166.52 39.344C166.52 40.1067 166.461 40.6787 166.344 41.06C166.021 41.3827 165.64 41.588 165.2 41.676C164.76 41.764 164.261 41.808 163.704 41.808C163.059 41.808 162.369 41.7787 161.636 41.72ZM154.904 40.532C155.051 40.532 155.197 40.4 155.344 40.136C155.491 40.2827 155.652 40.356 155.828 40.356C156.004 40.356 156.18 40.3413 156.356 40.312C156.561 40.2533 156.781 40.224 157.016 40.224C157.427 40.224 157.823 40.2827 158.204 40.4C158.585 40.488 158.981 40.5613 159.392 40.62C159.803 40.6787 160.463 40.7227 161.372 40.752C162.311 40.7813 163.499 40.84 164.936 40.928C165.288 40.928 165.508 40.9133 165.596 40.884C165.743 40.4733 165.831 40.0627 165.86 39.652C165.919 39.212 165.948 38.7867 165.948 38.376C165.948 34.8853 164.848 32.5827 162.648 31.468C162.208 31.2333 161.563 31.072 160.712 30.984C159.861 30.8667 158.923 30.808 157.896 30.808C157.075 30.808 156.165 30.896 155.168 31.072C154.2 31.2187 153.276 31.6 152.396 32.216C151.545 32.8027 150.827 33.6827 150.24 34.856C149.653 36 149.36 37.5693 149.36 39.564C149.36 41.1773 149.507 42.7027 149.8 44.14C150.123 45.5773 150.563 46.8533 151.12 47.968C151.677 49.0827 152.323 49.992 153.056 50.696C153.789 51.3707 154.581 51.752 155.432 51.84C156.019 51.8987 156.561 51.9427 157.06 51.972C157.588 51.972 158.101 51.972 158.6 51.972C159.451 51.972 160.14 51.9573 160.668 51.928C161.225 51.8987 161.695 51.8253 162.076 51.708C162.457 51.5613 162.795 51.3707 163.088 51.136C163.381 50.872 163.704 50.52 164.056 50.08C165.083 48.5253 165.596 46.5453 165.596 44.14C165.303 44.1107 165.039 44.096 164.804 44.096C164.569 44.0667 164.335 44.052 164.1 44.052H162.516C162.399 44.052 162.281 44.052 162.164 44.052C162.076 44.052 161.959 44.0373 161.812 44.008C161.636 44.4187 161.445 44.888 161.24 45.416C161.064 45.9147 160.844 46.384 160.58 46.824C160.316 47.264 159.993 47.6307 159.612 47.924C159.231 48.2173 158.761 48.364 158.204 48.364C157.559 48.364 156.987 48.2027 156.488 47.88C155.989 47.528 155.564 47.088 155.212 46.56C154.889 46.032 154.64 45.4307 154.464 44.756C154.288 44.0813 154.2 43.4067 154.2 42.732C154.2 42.0867 154.317 41.3387 154.552 40.488C154.611 40.488 154.669 40.5027 154.728 40.532C154.787 40.532 154.845 40.532 154.904 40.532ZM161.284 38.464C161.284 38.4053 161.255 38.3467 161.196 38.288C160.991 38.4053 160.536 38.464 159.832 38.464C159.128 38.464 158.365 38.376 157.544 38.2C156.752 37.9947 156.107 37.892 155.608 37.892C155.227 37.892 155.007 38.0533 154.948 38.376C154.86 38.2587 154.743 38.156 154.596 38.068C154.479 37.9507 154.42 37.7747 154.42 37.54C154.42 37.3347 154.435 37.1293 154.464 36.924C154.523 36.7187 154.552 36.5133 154.552 36.308C154.552 36.044 154.537 35.8973 154.508 35.868C154.684 35.692 154.845 35.4867 154.992 35.252L155.476 34.548C155.652 34.3133 155.843 34.1227 156.048 33.976C156.253 33.8 156.517 33.712 156.84 33.712C157.133 33.712 157.368 33.7853 157.544 33.932C157.72 34.0493 157.955 34.108 158.248 34.108C158.365 34.108 158.468 34.108 158.556 34.108C158.673 34.0787 158.791 34.064 158.908 34.064C159.172 34.064 159.407 34.152 159.612 34.328C159.817 34.4747 160.037 34.548 160.272 34.548C160.389 34.548 160.463 34.5333 160.492 34.504C160.815 34.8853 161.137 35.3107 161.46 35.78C161.812 36.22 161.988 36.7333 161.988 37.32C161.988 37.4667 161.915 37.7013 161.768 38.024C161.621 38.3467 161.519 38.508 161.46 38.508C161.372 38.508 161.313 38.4933 161.284 38.464ZM155.432 36.748C155.52 36.924 155.564 37.1293 155.564 37.364C155.623 37.3347 155.945 37.32 156.532 37.32C157.148 37.32 157.691 37.32 158.16 37.32C158.659 37.32 159.025 37.3347 159.26 37.364C159.289 37.3347 159.304 37.3053 159.304 37.276C159.275 37.276 159.26 37.2613 159.26 37.232V37.144C159.641 37.232 159.847 37.2907 159.876 37.32C159.876 37.2027 159.979 37.144 160.184 37.144C160.301 37.144 160.433 37.1587 160.58 37.188C160.756 37.188 160.917 37.188 161.064 37.188C161.064 36.4253 160.917 35.8093 160.624 35.34C160.331 34.8707 159.729 34.636 158.82 34.636C158.409 34.636 157.999 34.68 157.588 34.768C157.177 34.8267 156.796 34.9293 156.444 35.076C156.121 35.1933 155.843 35.3547 155.608 35.56C155.403 35.736 155.3 35.9413 155.3 36.176C155.3 36.352 155.344 36.5427 155.432 36.748Z" fill="#373737" fill-opacity="0.8"/>
</svg>
