<svg width="198" height="73" viewBox="0 0 198 73" fill="none" xmlns="http://www.w3.org/2000/svg">
<path d="M33 60.8561L21.6303 49.7914C13.5882 41.9651 0 47.4975 0 58.5622V73.0002H66V28.7415L33 60.8561Z" fill="#4D4D4D"/>
<path d="M33 12.1442L44.3698 23.2089C52.4118 31.0351 66 25.5028 66 14.4381V0H0V44.2588L33 12.1442Z" fill="#4D4D4D"/>
<path d="M85.0996 26.9004L85.4004 26.1484C84.9277 26.1484 84.5267 26.1914 84.1973 26.2773C83.8678 26.349 83.4811 26.4707 83.0371 26.6426C82.4928 26.8431 82.1204 26.9434 81.9199 26.9434C81.6764 26.9434 81.4759 26.8503 81.3184 26.6641C81.1608 26.4779 81.082 26.2487 81.082 25.9766C81.082 25.418 81.304 24.8451 81.748 24.2578C82.2064 23.6562 82.765 23.2337 83.4238 22.9902C84.2832 22.6465 85.3861 22.3743 86.7324 22.1738C88.0931 21.959 89.4395 21.8516 90.7715 21.8516C92.2754 21.8516 93.6217 21.959 94.8105 22.1738C96.0137 22.3887 97.0807 22.7324 98.0117 23.2051C98.9427 23.6777 99.7591 24.265 100.461 24.9668C101.163 25.6686 101.7 26.485 102.072 27.416C102.459 28.347 102.652 29.3353 102.652 30.3809C102.652 31.3262 102.459 32.3861 102.072 33.5605C101.7 34.735 101.177 35.8809 100.504 36.998C99.8307 38.1152 99.0931 39.0605 98.291 39.834C97.36 40.7363 96.1784 41.5026 94.7461 42.1328C93.3281 42.7487 92.0319 43.0566 90.8574 43.0566C90.3561 43.0566 89.9121 42.9707 89.5254 42.7988C89.153 42.6126 88.9668 42.3906 88.9668 42.1328C88.9668 41.7318 89.1172 41.3594 89.418 41.0156C89.7188 40.6576 90.2702 40.2207 91.0723 39.7051C91.7598 39.304 92.4043 38.8242 93.0059 38.2656C93.722 37.4779 94.2448 36.64 94.5742 35.752C94.918 34.8639 95.0898 33.804 95.0898 32.5723C95.0898 31.3978 94.8893 30.4023 94.4883 29.5859C94.0872 28.7695 93.4355 28.0391 92.5332 27.3945L89.5898 36.9336L89.0527 38.6094C88.8236 39.2682 88.5156 40.3997 88.1289 42.0039C87.4271 44.7682 86.7682 46.6875 86.1523 47.7617C85.8802 48.2344 85.5293 48.6999 85.0996 49.1582C84.4121 49.7598 83.5384 50.2897 82.4785 50.748C81.4329 51.1921 80.5306 51.4141 79.7715 51.4141C79.2702 51.4141 78.8691 51.2708 78.5684 50.9844C78.2819 50.6836 78.1387 50.2682 78.1387 49.7383C78.1387 49.151 78.2819 48.2917 78.5684 47.1602C78.8691 46.0286 79.4779 44.002 80.3945 41.0801L80.7812 39.877L81.1895 38.5664L85.0996 26.9004ZM115.951 29.8867C118.085 29.8867 119.152 30.1374 119.152 30.6387C119.152 31.2116 118.673 31.5195 117.713 31.5625C116.553 31.6341 115.471 31.9635 114.469 32.5508C113.466 33.138 112.571 33.9401 111.783 34.957C111.01 35.974 110.401 37.1198 109.957 38.3945C109.527 39.6693 109.312 41.0156 109.312 42.4336C109.312 43.9948 109.678 45.2552 110.408 46.2148C111.139 47.1602 112.091 47.6328 113.266 47.6328C114.354 47.6328 115.307 47.0742 116.123 45.957C116.939 44.8398 117.348 43.5365 117.348 42.0469C117.348 40.8294 117.09 39.6908 116.574 38.6309C116.073 37.5566 115.335 36.6543 114.361 35.9238C113.946 35.5944 113.738 35.3581 113.738 35.2148C113.738 35.0143 114.032 34.7064 114.619 34.291C115.278 33.847 116.016 33.4746 116.832 33.1738C117.648 32.873 118.336 32.7227 118.895 32.7227C119.539 32.7227 120.148 32.8945 120.721 33.2383C121.308 33.5677 121.824 34.0475 122.268 34.6777C122.712 35.2936 123.048 36.0098 123.277 36.8262C123.521 37.6283 123.643 38.4876 123.643 39.4043C123.643 40.9225 123.356 42.4264 122.783 43.916C122.21 45.3913 121.458 46.5872 120.527 47.5039C119.324 48.6641 117.87 49.6165 116.166 50.3613C114.476 51.0918 112.865 51.457 111.332 51.457C109.842 51.457 108.36 51.1992 106.885 50.6836C105.424 50.168 104.264 49.4876 103.404 48.6426C102.258 47.4967 101.686 45.8711 101.686 43.7656C101.686 42.1042 102.094 40.4427 102.91 38.7812C103.727 37.1198 104.829 35.6159 106.219 34.2695C107.622 32.9089 109.162 31.8418 110.838 31.0684C112.528 30.2806 114.232 29.8867 115.951 29.8867ZM132.064 44.9473L131.979 45.377C131.979 45.6204 131.95 45.9714 131.893 46.4297C131.835 47.1315 131.757 47.7044 131.656 48.1484C131.556 48.5924 131.406 48.9648 131.205 49.2656C131.005 49.5521 130.732 49.86 130.389 50.1895C129.343 51.1491 128.29 51.6289 127.23 51.6289C126.371 51.6289 125.734 51.3138 125.318 50.6836C124.917 50.0534 124.717 49.0365 124.717 47.6328C124.717 46.5156 124.839 45.1406 125.082 43.5078C125.34 41.8607 125.648 40.3854 126.006 39.082L126.178 38.5234C126.178 38.4375 126.221 38.2585 126.307 37.9863C126.837 36.0384 127.324 34.599 127.768 33.668C128.212 32.7227 128.749 31.9635 129.379 31.3906C129.938 30.9466 130.568 30.7246 131.27 30.7246C132.286 30.7246 132.902 31.3405 133.117 32.5723C133.318 32.4004 133.511 32.1999 133.697 31.9707C134.113 31.4694 134.435 31.14 134.664 30.9824C134.893 30.8105 135.158 30.7246 135.459 30.7246C136.691 30.7246 137.307 31.9421 137.307 34.377C137.307 35.709 137.163 36.998 136.877 38.2441C136.59 39.4902 136.225 40.5072 135.781 41.2949C135.352 42.0827 134.922 42.4766 134.492 42.4766C134.02 42.4766 133.783 41.5814 133.783 39.791C133.783 38.8457 133.726 38.1081 133.611 37.5781C133.511 37.0339 133.346 36.6113 133.117 36.3105C132.688 37.1126 132.408 38.946 132.279 41.8105C132.179 43.472 132.107 44.5176 132.064 44.9473ZM143.129 30.7246L143.215 30.4668C144.16 27.8027 144.977 25.9264 145.664 24.8379C145.993 24.3223 146.452 23.8639 147.039 23.4629C148.142 22.7611 149.18 22.4102 150.154 22.4102C150.727 22.4102 151.164 22.5391 151.465 22.7969C151.766 23.0547 151.916 23.4271 151.916 23.9141C151.916 24.2435 151.701 24.9167 151.271 25.9336C150.541 27.6237 149.997 29.2064 149.639 30.6816C149.882 30.7103 150.118 30.7533 150.348 30.8105C151.207 30.9395 151.773 31.0898 152.045 31.2617C152.317 31.4193 152.453 31.7129 152.453 32.1426C152.453 32.9017 152.26 33.6035 151.873 34.248C151.486 34.8926 150.978 35.3652 150.348 35.666C149.875 35.8809 149.109 36.0241 148.049 36.0957C147.863 36.6543 147.655 37.4206 147.426 38.3945C147.297 39.2539 147.154 40.4427 146.996 41.9609C146.91 42.5195 146.867 43.0423 146.867 43.5293C146.867 45.7923 147.963 46.9238 150.154 46.9238H150.283H150.348C150.605 46.9238 150.734 46.9668 150.734 47.0527C150.734 47.2819 150.491 47.6686 150.004 48.2129C149.517 48.7572 148.98 49.237 148.393 49.6523C147.762 50.082 147.075 50.4258 146.33 50.6836C145.585 50.9414 144.912 51.0703 144.311 51.0703C142.807 51.0703 141.582 50.5618 140.637 49.5449C139.706 48.528 139.24 47.1816 139.24 45.5059C139.24 44.7897 139.362 43.8516 139.605 42.6914C139.863 41.5312 140.257 39.9772 140.787 38.0293C140.873 37.6855 140.966 37.3275 141.066 36.9551C141.167 36.5684 141.224 36.3392 141.238 36.2676C140.665 36.2533 140.257 36.1315 140.014 35.9023C139.77 35.6732 139.648 35.3008 139.648 34.7852C139.648 33.8828 139.992 33.0306 140.68 32.2285C141.382 31.4264 142.198 30.9251 143.129 30.7246ZM170.221 40.3281L169.812 40.457C168.781 40.7435 168.036 40.8867 167.578 40.8867C167.02 40.8867 166.74 40.7435 166.74 40.457C166.74 40.3568 166.855 40.0918 167.084 39.6621C167.886 38.4447 168.287 37.2988 168.287 36.2246C168.287 35.6087 168.18 35.0501 167.965 34.5488C167.75 34.0332 167.514 33.7754 167.256 33.7754C167.027 33.7754 166.676 34.0189 166.203 34.5059C164.871 35.9525 163.811 37.4349 163.023 38.9531C162.25 40.4714 161.863 41.8249 161.863 43.0137C161.863 43.8014 162.021 44.4531 162.336 44.9688C162.665 45.4844 163.074 45.7422 163.561 45.7422C163.976 45.7422 164.749 45.2982 165.881 44.4102C167.027 43.5221 168.309 42.3477 169.727 40.8867L170.307 40.4141L170.221 40.3281ZM168.932 45.248V45.334L168.846 45.248C167.514 46.8092 166.289 48.0911 165.172 49.0938C164.069 50.082 163.045 50.8268 162.1 51.3281C161.169 51.8294 160.309 52.0801 159.521 52.0801C157.917 52.0801 156.592 51.543 155.547 50.4688C154.501 49.3945 153.979 48.0339 153.979 46.3867C153.979 45.3698 154.236 44.1667 154.752 42.7773C155.268 41.388 155.977 40.0273 156.879 38.6953C158.383 36.5182 160.273 34.6706 162.551 33.1523C164.9 31.5911 167.163 30.8105 169.34 30.8105C171.173 30.8105 172.677 31.1901 173.852 31.9492C175.04 32.694 175.635 33.6393 175.635 34.7852C175.635 35.6302 175.341 36.5254 174.754 37.4707C175.527 37.4707 176.014 37.5566 176.215 37.7285C176.415 37.8861 176.516 38.2656 176.516 38.8672C176.516 38.8099 176.48 39.1035 176.408 39.748C176.322 41.166 176.279 42.4909 176.279 43.7227C176.279 44.3672 176.286 44.8542 176.301 45.1836C176.315 45.513 176.344 45.8926 176.387 46.3223C176.43 46.752 176.473 47.0957 176.516 47.3535C176.63 48.0267 176.816 48.6927 177.074 49.3516C176.215 50.1966 175.391 50.8197 174.604 51.2207C173.816 51.6074 173.014 51.8008 172.197 51.8008C169.992 51.8008 168.889 49.9531 168.889 46.2578C168.889 45.8281 168.903 45.4915 168.932 45.248ZM190.094 35.4297C190.667 33.8112 191.146 32.1211 191.533 30.3594C191.92 28.5833 192.113 27.2227 192.113 26.2773C192.113 26.0195 192.042 25.8906 191.898 25.8906C191.669 25.8906 191.268 26.4062 190.695 27.4375C190.122 28.4544 189.643 29.4928 189.256 30.5527C188.425 32.8874 187.781 34.8281 187.322 36.375C186.878 37.9076 186.57 39.1966 186.398 40.2422C186.227 41.2878 186.141 42.3548 186.141 43.4434C186.141 44.3743 186.241 45.0547 186.441 45.4844C186.656 45.9141 186.993 46.1289 187.451 46.1289C188.239 46.1289 189.12 45.7852 190.094 45.0977C191.068 44.3958 191.949 43.4792 192.736 42.3477C193.352 41.5026 193.832 41.0801 194.176 41.0801C194.62 41.0801 194.842 41.431 194.842 42.1328C194.842 43.6654 194.362 45.1621 193.402 46.623C192.443 48.084 191.204 49.2728 189.686 50.1895C188.182 51.0918 186.642 51.543 185.066 51.543C183.133 51.543 181.557 50.9342 180.34 49.7168C179.122 48.4993 178.514 46.9095 178.514 44.9473C178.514 43.3431 178.857 41.4668 179.545 39.3184C180.232 37.1556 181.149 34.9857 182.295 32.8086C183.455 30.6172 184.723 28.6335 186.098 26.8574C187.473 25.0814 188.833 23.7207 190.18 22.7754C191.01 22.1595 191.934 21.8516 192.951 21.8516C193.725 21.8516 194.426 22.0951 195.057 22.582C195.687 23.0547 196.174 23.7207 196.518 24.5801C196.861 25.4395 197.033 26.3919 197.033 27.4375C197.033 29.6862 196.589 31.8848 195.701 34.0332C194.827 36.1816 193.603 38.0436 192.027 39.6191C191.283 40.3783 190.566 40.9727 189.879 41.4023C189.191 41.832 188.59 42.0469 188.074 42.0469C187.573 42.0469 187.322 41.8535 187.322 41.4668C187.322 41.252 187.508 40.8438 187.881 40.2422C188.382 39.4544 188.969 38.2656 189.643 36.6758C189.7 36.5182 189.764 36.3535 189.836 36.1816C189.908 35.9954 189.993 35.7448 190.094 35.4297Z" fill="#4D4D4D"/>
</svg>
