<svg width="227" height="73" viewBox="0 0 227 73" fill="none" xmlns="http://www.w3.org/2000/svg">
<path d="M66 25.7594H43.6376V3.5H22.2071C22.2071 15.7972 12.2682 25.7594 0 25.7594V47.2406H22.2071V69.5H43.6376C43.6376 57.2028 53.7318 47.2406 66 47.2406V25.7594Z" fill="#4D4D4D"/>
<path d="M91.388 32.712C93.6467 33.1813 95.4653 33.6507 96.844 34.12C98.2227 34.5893 99.484 35.1907 100.628 35.924C101.772 36.628 102.579 37.508 103.048 38.564C103.547 39.62 103.796 40.896 103.796 42.392C103.796 44.0933 103.429 45.604 102.696 46.924C101.992 48.2147 101.039 49.212 99.836 49.916C98.6627 50.62 97.416 51.148 96.096 51.5C94.8053 51.852 93.4707 52.028 92.092 52.028C87.8973 52.028 84.7 51.0453 82.5 49.08C80.3293 47.0853 79.0533 44.592 78.672 41.6H85.008C85.448 43.184 86.196 44.3427 87.252 45.076C88.3373 45.8093 89.936 46.176 92.048 46.176C93.808 46.176 95.1427 45.868 96.052 45.252C96.9907 44.636 97.46 43.7707 97.46 42.656C97.46 41.952 97.196 41.3947 96.668 40.984C96.1693 40.544 95.5533 40.2213 94.82 40.016C94.0867 39.8107 92.7813 39.5027 90.904 39.092C90.7573 39.0627 90.64 39.048 90.552 39.048C90.4933 39.0187 90.3907 38.9893 90.244 38.96C90.1267 38.9307 90.0093 38.9013 89.892 38.872C88.308 38.5493 86.9733 38.1973 85.888 37.816C84.8027 37.4347 83.732 36.9067 82.676 36.232C81.62 35.5573 80.8133 34.692 80.256 33.636C79.728 32.58 79.464 31.3187 79.464 29.852C79.464 26.8013 80.608 24.4253 82.896 22.724C85.184 21.0227 87.912 20.172 91.08 20.172C94.952 20.172 97.8853 21.0667 99.88 22.856C101.904 24.616 103.107 26.904 103.488 29.72H97.108C96.3453 27.256 94.3507 26.024 91.124 26.024C89.3347 26.024 88 26.3613 87.12 27.036C86.24 27.6813 85.8 28.532 85.8 29.588C85.8 30.4387 86.1667 31.0547 86.9 31.436C87.6627 31.8173 89.1587 32.2427 91.388 32.712ZM126.035 44.988L127.091 50.092C126.358 50.5907 125.302 51.0453 123.923 51.456C122.574 51.8373 121.225 52.028 119.875 52.028C117.265 52.028 115.094 51.2067 113.363 49.564C111.662 47.9213 110.811 45.4573 110.811 42.172V33.24H106.499V27.3H110.811V22.064L117.103 20.7V27.3H126.079V33.24H117.103V41.82C117.103 44.724 118.394 46.176 120.975 46.176C122.119 46.176 123.806 45.78 126.035 44.988ZM148.037 27.3H154.329L154.285 51.5H147.993V48.244C146.145 50.7667 143.623 52.028 140.425 52.028C137.228 52.028 134.588 50.8547 132.505 48.508C130.423 46.132 129.381 43.096 129.381 39.4C129.381 35.704 130.423 32.6827 132.505 30.336C134.617 27.96 137.243 26.772 140.381 26.772C143.608 26.772 146.16 28.0773 148.037 30.688V27.3ZM141.833 46.044C143.623 46.044 145.104 45.428 146.277 44.196C147.451 42.964 148.037 41.3653 148.037 39.4C148.037 37.4347 147.451 35.836 146.277 34.604C145.104 33.372 143.623 32.756 141.833 32.756C140.044 32.756 138.577 33.372 137.433 34.604C136.289 35.836 135.717 37.4347 135.717 39.4C135.717 41.3653 136.289 42.964 137.433 44.196C138.607 45.428 140.073 46.044 141.833 46.044ZM173.292 26.772C176.431 26.772 179.056 27.96 181.168 30.336C183.28 32.6827 184.336 35.704 184.336 39.4C184.336 43.096 183.28 46.132 181.168 48.508C179.085 50.8547 176.46 52.028 173.292 52.028C170.065 52.028 167.513 50.7667 165.636 48.244V51.5H159.344V17.62H165.636V30.688C167.513 28.0773 170.065 26.772 173.292 26.772ZM171.84 46.044C173.6 46.044 175.052 45.428 176.196 44.196C177.369 42.964 177.956 41.3653 177.956 39.4C177.956 37.4347 177.384 35.836 176.24 34.604C175.096 33.372 173.629 32.756 171.84 32.756C170.051 32.756 168.569 33.372 167.396 34.604C166.223 35.836 165.636 37.4347 165.636 39.4C165.636 41.3653 166.223 42.964 167.396 44.196C168.569 45.428 170.051 46.044 171.84 46.044ZM188.779 51.5V17.62H195.071V51.5H188.779ZM212.134 26.772C216.094 26.772 219.218 28.136 221.506 30.864C223.824 33.592 224.821 36.98 224.498 41.028H205.93C206.136 42.9053 206.81 44.3427 207.954 45.34C209.098 46.3373 210.521 46.836 212.222 46.836C213.454 46.836 214.554 46.572 215.522 46.044C216.49 45.4867 217.18 44.7387 217.59 43.8H224.102C223.252 46.528 221.756 48.5813 219.614 49.96C217.473 51.3387 215.024 52.028 212.266 52.028C208.512 52.028 205.446 50.84 203.07 48.464C200.694 46.088 199.506 43.0813 199.506 39.444C199.506 35.8067 200.694 32.7853 203.07 30.38C205.446 27.9747 208.468 26.772 212.134 26.772ZM212.09 31.964C210.594 31.964 209.348 32.3747 208.35 33.196C207.353 33.988 206.649 35.0587 206.238 36.408H217.81C217.458 35.0587 216.784 33.988 215.786 33.196C214.789 32.3747 213.557 31.964 212.09 31.964Z" fill="#4D4D4D"/>
</svg>
