<svg width="200" height="74" viewBox="0 0 200 74" fill="none" xmlns="http://www.w3.org/2000/svg">
<path d="M51.237 44.5145L61.3685 34.3555C61.3685 27.3893 59.6317 20.7134 56.4475 14.9082L32.8555 36.8226V73.25H37.3423C53.1185 73.25 66.0001 60.4787 66.0001 44.5145H51.237Z" fill="#4D4D4D"/>
<path d="M14.7631 28.9855L4.63156 39.1445C4.63156 46.1107 6.36839 52.7866 9.55259 58.5918L33.1446 36.6773V0.25H28.6578C12.8815 0.25 0 13.0213 0 28.9855H14.7631Z" fill="#4D4D4D"/>
<path d="M101.094 20.75H105.938V41.7969C105.938 44.0365 105.411 46.0208 104.359 47.75C103.307 49.4687 101.828 50.8229 99.9219 51.8125C98.0156 52.7917 95.7813 53.2813 93.2188 53.2813C90.6667 53.2813 88.4375 52.7917 86.5313 51.8125C84.625 50.8229 83.1458 49.4687 82.0938 47.75C81.0417 46.0208 80.5156 44.0365 80.5156 41.7969V20.75H85.3438V41.4062C85.3438 42.8542 85.6615 44.1406 86.2969 45.2656C86.9427 46.3906 87.8542 47.276 89.0312 47.9219C90.2083 48.5573 91.6042 48.875 93.2188 48.875C94.8438 48.875 96.2448 48.5573 97.4219 47.9219C98.6094 47.276 99.5156 46.3906 100.141 45.2656C100.776 44.1406 101.094 42.8542 101.094 41.4062V20.75ZM117.254 38.5V52.75H112.582V28.75H117.066V32.6562H117.363C117.915 31.3854 118.78 30.3646 119.957 29.5937C121.145 28.8229 122.639 28.4375 124.441 28.4375C126.077 28.4375 127.509 28.7813 128.738 29.4688C129.967 30.1458 130.921 31.1562 131.598 32.5C132.275 33.8437 132.613 35.5052 132.613 37.4844V52.75H127.941V38.0469C127.941 36.3073 127.488 34.9479 126.582 33.9687C125.676 32.9792 124.431 32.4844 122.848 32.4844C121.764 32.4844 120.801 32.7187 119.957 33.1875C119.124 33.6562 118.462 34.3437 117.973 35.25C117.493 36.1458 117.254 37.2292 117.254 38.5ZM138.879 52.75V28.75H143.551V52.75H138.879ZM141.238 25.0469C140.426 25.0469 139.728 24.776 139.145 24.2344C138.572 23.6823 138.285 23.026 138.285 22.2656C138.285 21.4948 138.572 20.8385 139.145 20.2969C139.728 19.7448 140.426 19.4687 141.238 19.4687C142.051 19.4687 142.743 19.7448 143.316 20.2969C143.9 20.8385 144.191 21.4948 144.191 22.2656C144.191 23.026 143.9 23.6823 143.316 24.2344C142.743 24.776 142.051 25.0469 141.238 25.0469ZM159.945 53.2344C157.695 53.2344 155.732 52.7188 154.055 51.6875C152.378 50.6562 151.076 49.2135 150.148 47.3594C149.221 45.5052 148.758 43.3385 148.758 40.8594C148.758 38.3698 149.221 36.1927 150.148 34.3281C151.076 32.4635 152.378 31.0156 154.055 29.9844C155.732 28.9531 157.695 28.4375 159.945 28.4375C162.195 28.4375 164.159 28.9531 165.836 29.9844C167.513 31.0156 168.815 32.4635 169.742 34.3281C170.669 36.1927 171.133 38.3698 171.133 40.8594C171.133 43.3385 170.669 45.5052 169.742 47.3594C168.815 49.2135 167.513 50.6562 165.836 51.6875C164.159 52.7188 162.195 53.2344 159.945 53.2344ZM159.961 49.3125C161.419 49.3125 162.628 48.9271 163.586 48.1562C164.544 47.3854 165.253 46.3594 165.711 45.0781C166.18 43.7969 166.414 42.3854 166.414 40.8437C166.414 39.3125 166.18 37.9062 165.711 36.625C165.253 35.3333 164.544 34.2969 163.586 33.5156C162.628 32.7344 161.419 32.3437 159.961 32.3437C158.492 32.3437 157.273 32.7344 156.305 33.5156C155.346 34.2969 154.633 35.3333 154.164 36.625C153.706 37.9062 153.477 39.3125 153.477 40.8437C153.477 42.3854 153.706 43.7969 154.164 45.0781C154.633 46.3594 155.346 47.3854 156.305 48.1562C157.273 48.9271 158.492 49.3125 159.961 49.3125ZM181.02 38.5V52.75H176.348V28.75H180.832V32.6562H181.129C181.681 31.3854 182.546 30.3646 183.723 29.5937C184.91 28.8229 186.405 28.4375 188.207 28.4375C189.842 28.4375 191.275 28.7813 192.504 29.4688C193.733 30.1458 194.686 31.1562 195.363 32.5C196.04 33.8437 196.379 35.5052 196.379 37.4844V52.75H191.707V38.0469C191.707 36.3073 191.254 34.9479 190.348 33.9687C189.441 32.9792 188.197 32.4844 186.613 32.4844C185.53 32.4844 184.566 32.7187 183.723 33.1875C182.889 33.6562 182.228 34.3437 181.738 35.25C181.259 36.1458 181.02 37.2292 181.02 38.5Z" fill="#4D4D4D"/>
</svg>
