<svg width="204" height="73" viewBox="0 0 204 73" fill="none" xmlns="http://www.w3.org/2000/svg">
<path d="M38.6994 54.111C33.4494 52.1625 28.0494 51.8627 23.0994 53.2117C19.6494 54.111 16.3494 55.9096 13.3494 58.1579L11.2494 59.9565L10.6494 60.556L11.9994 61.7551C12.1494 61.7551 12.1494 61.905 12.2994 62.0549C12.5994 62.3546 12.8994 62.5045 13.3494 62.8043L14.2494 63.4038L15.1494 62.6544C15.2994 62.5045 15.5994 62.2048 15.8994 62.0549C18.5994 59.8066 21.5994 58.3078 24.7494 57.5583C28.7994 56.5091 33.1494 56.659 37.4994 58.3078C41.0994 59.6567 48.4494 61.3055 57.2994 57.5583L57.5994 57.4084L58.0494 56.9588C58.0494 56.8089 58.1994 56.8089 58.3494 56.659C59.0994 55.7597 59.8494 54.8604 60.4494 53.8112L63.4494 49.1648L58.6494 51.8627C51.5994 55.7597 45.1494 56.5091 38.6994 54.111Z" fill="#4D4D4D"/>
<path d="M18.15 37.9237C22.2 36.8745 26.55 37.0244 30.9 38.6732C35.7 40.4718 48 43.0198 61.8 30.5794L64.05 28.3311L64.2 28.1812L64.8 27.5817L64.5 26.8323C64.35 26.2328 64.05 25.4833 63.75 24.7339L63 22.6355L61.5 24.1343C61.35 24.4341 61.05 24.584 60.75 24.8838C54.15 31.6286 43.95 38.5233 32.25 34.3265C27 32.378 21.6 32.0782 16.65 33.4272C11.85 34.7762 7.65 37.3242 3.75 40.9214V40.7715L1.5 43.1697C1.5 43.3196 1.35003 43.3196 1.20003 43.4695L0.75 43.9191L0.900009 44.5187C1.05001 45.2681 1.35 46.0175 1.5 46.7669L2.40001 49.1651L3.90001 47.2166C4.05001 46.9168 4.35 46.7669 4.5 46.4672C7.65 43.6194 12 39.5725 18.15 37.9237Z" fill="#4D4D4D"/>
<path d="M3.60004 35.2257C7.05004 31.6285 10.95 29.3802 15.15 28.1811C19.2 27.1319 23.55 27.2818 27.9 28.9305C41.4 33.8767 53.1 25.7829 58.2 21.4363L60.15 19.4878L60.9 18.8882L60.3 17.989C59.85 17.5393 59.55 16.9398 59.1 16.3402L58.2 15.1411L57.15 16.1903C57 16.3402 56.7 16.64 56.55 16.7899C50.25 22.7852 40.5 28.9305 29.4 24.7338C24.15 22.7853 18.75 22.4855 13.8 23.8344C10.65 24.7338 7.65001 26.2326 4.65001 28.1811L1.5 30.7291C1.2 31.0289 1.05 31.1788 0.75 31.4786L0.450027 31.7783V32.228C0.300027 33.2772 0.300009 34.3264 0.150009 35.2257L0 38.9728L2.55002 36.2748C2.85002 35.9751 3.15004 35.5254 3.60004 35.2257Z" fill="#4D4D4D"/>
<path d="M43.0506 64.3032L42.7505 65.2025L43.0506 64.3032C42.6006 64.1533 42.3006 64.0034 41.8506 63.8535C36.6006 61.905 31.2005 61.6053 26.2505 62.9542C25.2005 63.254 24.1506 63.5538 23.1006 64.0034L19.5005 65.6522L18.6006 66.1018L21.6006 67.151C22.5006 67.4508 23.4006 67.7505 24.3006 68.0503L24.7505 68.2002L25.2006 68.0503C25.6506 67.9004 26.1006 67.6006 26.5506 67.6006C26.8506 67.6006 27.1506 67.4508 27.4506 67.3009C31.0506 66.4016 34.9506 66.4016 39.1506 67.7505C39.6006 67.9004 39.9006 68.0503 40.3506 68.2002L41.1006 68.5L41.5506 68.3501C42.6006 68.0503 43.8006 67.7505 44.7006 67.3009L48.9006 65.802L44.5506 64.7528C44.1006 64.603 43.5006 64.4531 43.0506 64.3032Z" fill="#4D4D4D"/>
<path d="M65.9992 33.2786L63.7492 35.5268C63.4492 35.8266 63.1492 36.1264 62.8492 36.4261C56.6992 42.2716 46.7992 48.5668 35.6992 44.37C30.4492 42.4215 25.0492 42.1218 20.0992 43.4707C15.4492 44.8197 11.2492 47.2178 7.49919 50.8151L5.54921 52.9135L4.94922 53.6629L5.54921 54.5622C5.99921 55.1617 6.29923 55.6114 6.59923 56.2109L7.49919 57.5599L8.54921 56.2109C8.69921 56.061 8.9992 55.7612 9.1492 55.6114C12.7492 51.7144 16.6492 49.3162 21.1492 48.1171C25.1992 47.0679 29.5492 47.2178 33.8992 48.8665C37.6492 50.2155 41.5492 50.6652 45.4492 50.2155C52.3492 49.4661 59.2492 45.5691 64.3492 41.2225C64.6492 40.9227 64.9492 40.7728 65.2492 40.4731L65.6992 40.0234V39.5737C65.6992 38.6744 65.8492 37.6252 65.8492 36.7259L65.9992 33.2786Z" fill="#4D4D4D"/>
<path d="M9.00076 19.489L8.55078 18.5897L9.00076 19.489C9.90076 19.0393 10.9508 18.7395 11.8508 18.4398C15.9008 17.3906 20.2508 17.5405 24.6008 19.1892C27.4508 20.2384 30.3008 20.688 33.4508 20.688C39.7508 20.688 46.0508 18.4398 51.9008 14.0931L54.1508 12.2945L54.9008 11.695L53.5508 10.6458C53.1008 10.1961 52.5008 9.74647 51.9008 9.4467L51.0008 8.84717L50.2508 9.4467C49.9508 9.59658 49.8008 9.89634 49.5008 10.0462C41.5508 16.0416 33.6008 17.6904 26.1008 14.8426C20.7008 12.8941 15.3008 12.4444 9.90077 14.0931C9.45077 14.243 9.00077 14.3929 8.40077 14.5428L8.1008 14.6927L7.65077 15.1423C7.65077 15.2922 7.5008 15.2922 7.3508 15.4421C6.7508 16.3414 6.00077 17.0908 5.40077 17.9901L2.55078 22.3368L7.20079 19.9386C7.95079 19.9386 8.55076 19.6389 9.00076 19.489Z" fill="#4D4D4D"/>
<path d="M21.3 9.29628L21.75 9.44617C23.7 10.1956 26.7 10.945 30.45 10.945C34.35 10.945 38.1 10.0457 41.85 8.54686L46.5 6.29859L43.35 5.24942C42.45 4.94965 41.55 4.64988 40.5 4.5H40.05L39.6 4.64985C39.15 4.79973 38.7 5.09954 38.25 5.24942C33.75 6.89815 29.25 7.19792 24.9 5.99885C24.45 5.84896 24 5.69905 23.55 5.54916L23.1 5.39927L22.65 5.54916C21.75 5.84893 20.85 6.14872 19.95 6.59837L16.5 8.09722L20.1 9.14638C20.4 8.9965 20.85 9.14639 21.3 9.29628Z" fill="#4D4D4D"/>
<path d="M88.395 52.5L78.187 21.7H84.127L93.235 49.552H90.287L99.747 21.7H105.027L114.223 49.552H111.363L120.691 21.7H126.147L115.939 52.5H109.867L101.463 27.376H103.047L94.511 52.5H88.395ZM142.993 52.5V47.748L142.685 46.736V38.42C142.685 36.8067 142.201 35.56 141.233 34.68C140.265 33.7707 138.799 33.316 136.833 33.316C135.513 33.316 134.208 33.5213 132.917 33.932C131.656 34.3427 130.585 34.9147 129.705 35.648L127.549 31.644C128.811 30.676 130.307 29.9573 132.037 29.488C133.797 28.9893 135.616 28.74 137.493 28.74C140.896 28.74 143.521 29.5613 145.369 31.204C147.247 32.8173 148.185 35.3253 148.185 38.728V52.5H142.993ZM135.601 52.808C133.841 52.808 132.301 52.5147 130.981 51.928C129.661 51.312 128.635 50.476 127.901 49.42C127.197 48.3347 126.845 47.1173 126.845 45.768C126.845 44.448 127.153 43.26 127.769 42.204C128.415 41.148 129.456 40.312 130.893 39.696C132.331 39.08 134.237 38.772 136.613 38.772H143.433V42.424H137.009C135.132 42.424 133.871 42.732 133.225 43.348C132.58 43.9347 132.257 44.668 132.257 45.548C132.257 46.5453 132.653 47.3373 133.445 47.924C134.237 48.5107 135.337 48.804 136.745 48.804C138.095 48.804 139.297 48.496 140.353 47.88C141.439 47.264 142.216 46.3547 142.685 45.152L143.609 48.452C143.081 49.8307 142.128 50.9013 140.749 51.664C139.4 52.4267 137.684 52.808 135.601 52.808ZM161.062 52.5L150.986 29.004H156.706L165.374 49.728H162.558L171.534 29.004H176.814L166.738 52.5H161.062ZM190.651 52.808C188.04 52.808 185.752 52.2947 183.787 51.268C181.851 50.212 180.34 48.7747 179.255 46.956C178.199 45.1373 177.671 43.0693 177.671 40.752C177.671 38.4053 178.184 36.3373 179.211 34.548C180.267 32.7293 181.704 31.3067 183.523 30.28C185.371 29.2533 187.468 28.74 189.815 28.74C192.103 28.74 194.142 29.2387 195.931 30.236C197.72 31.2333 199.128 32.6413 200.155 34.46C201.182 36.2787 201.695 38.42 201.695 40.884C201.695 41.1187 201.68 41.3827 201.651 41.676C201.651 41.9693 201.636 42.248 201.607 42.512H182.027V38.86H198.703L196.547 40.004C196.576 38.6547 196.298 37.4667 195.711 36.44C195.124 35.4133 194.318 34.6067 193.291 34.02C192.294 33.4333 191.135 33.14 189.815 33.14C188.466 33.14 187.278 33.4333 186.251 34.02C185.254 34.6067 184.462 35.428 183.875 36.484C183.318 37.5107 183.039 38.728 183.039 40.136V41.016C183.039 42.424 183.362 43.6707 184.007 44.756C184.652 45.8413 185.562 46.6773 186.735 47.264C187.908 47.8507 189.258 48.144 190.783 48.144C192.103 48.144 193.291 47.9387 194.347 47.528C195.403 47.1173 196.342 46.472 197.163 45.592L200.111 48.98C199.055 50.212 197.72 51.1653 196.107 51.84C194.523 52.4853 192.704 52.808 190.651 52.808Z" fill="#4D4D4D"/>
</svg>
